<svg xmlns="http://www.w3.org/2000/svg" width="80" height="80" viewBox="0 0 80 80">
    <g fill="none" fill-rule="evenodd" transform="translate(8 7)">
        <path stroke="#855B9F" stroke-width="1.73" d="M40.396 35.752a9.942 9.942 0 0 0 .442-3.301l2.604-1.795a12.935 12.935 0 0 0-.249-1.158 13.144 13.144 0 0 0-.364-1.128l-3.152-.253a9.98 9.98 0 0 0-2.033-2.638l.575-3.123a12.836 12.836 0 0 0-2.049-1.182l-2.417 2.059a9.942 9.942 0 0 0-3.301-.442l-1.794-2.604c-.386.066-.773.146-1.159.249-.386.104-.76.229-1.128.364l-.252 3.151a9.965 9.965 0 0 0-2.638 2.033l-3.123-.574a12.962 12.962 0 0 0-1.183 2.049l2.059 2.417a9.968 9.968 0 0 0-.441 3.301l-2.604 1.794c.066.387.145.773.249 1.159.104.386.229.761.364 1.128l3.152.252a9.986 9.986 0 0 0 2.033 2.639l-.574 3.122c.645.456 1.331.853 2.048 1.183l2.417-2.059a9.994 9.994 0 0 0 3.301.442l1.794 2.603c.386-.066.773-.145 1.159-.248.386-.104.76-.229 1.128-.364l.252-3.152a9.944 9.944 0 0 0 2.638-2.033l3.123.575c.456-.646.852-1.331 1.183-2.049l-2.06-2.417zm-8.074 2.688a5.825 5.825 0 1 1-3.016-11.252 5.825 5.825 0 0 1 3.016 11.252z"/>
        <path stroke="#2196f3" stroke-width="2" d="M27.221 53.984c-8.745-1.564-15.641-8.461-17.205-17.205M51.984 36.779c-1.564 8.744-8.46 15.641-17.205 17.205M34.779 12.016c8.744 1.564 15.64 8.461 17.205 17.205M10.07 28.931c1.664-8.606 8.503-15.367 17.15-16.915"/>
        <path stroke="#2196f3" stroke-linecap="round" stroke-width="2" d="M26 12H0M36 54h29"/>
        <circle cx="30.951" cy="11.73" r="3.731" stroke="#855B9F" stroke-width="2"/>
        <circle cx="31.049" cy="54.27" r="3.731" stroke="#855B9F" stroke-width="2"/>
        <circle cx="52.269" cy="32.951" r="3.731" stroke="#855B9F" stroke-width="2"/>
        <circle cx="9.731" cy="32.951" r="3.731" stroke="#855B9F" stroke-width="2"/>
        <circle cx="6.5" cy="12" r="2.5" fill="#855B9F" fill-rule="nonzero"/>
        <circle cx="57.5" cy="54" r="2.5" fill="#855B9F" fill-rule="nonzero"/>
        <path stroke="#855B9F" stroke-linecap="round" stroke-width="2" d="M41.133 3.765C51.82 5.421 60 14.662 60 25.812V27"/>
        <path fill="#855B9F" fill-rule="nonzero" d="M43.363 7.493L30.5 3.5 43.635.525z"/>
        <g>
            <path stroke="#855B9F" stroke-linecap="round" stroke-width="2" d="M21.867 62.735C11.18 61.079 3 51.839 3 40.688V39.5"/>
            <path fill="#855B9F" fill-rule="nonzero" d="M19.637 59.008L32.5 63l-13.135 2.975z"/>
        </g>
    </g>
</svg>
