<svg xmlns="http://www.w3.org/2000/svg" xmlns:xlink="http://www.w3.org/1999/xlink" width="80" height="80" viewBox="0 0 80 80">
    <defs>
        <path id="a" d="M23.958 37.5C22.042 23.333 14.271 14.5 0 13.292V1.667L38 0v44s-14.771 1.312-14-.5c.771-1.812-.042-6-.042-6z"/>
        <path id="c" d="M23.958 37.5C22.042 23.333 14.271 14.5 0 13.292V1.667L38 0v44s-14.771 1.312-14-.5c.771-1.812-.042-6-.042-6z"/>
    </defs>
    <g fill="none" fill-rule="evenodd">
        <g transform="translate(39 4)">
            <mask id="b" fill="#fff">
                <use xlink:href="#a"/>
            </mask>
            <path stroke="#855B9F" stroke-width="2" d="M22.746 25.5h-4.542c-5.359 0-9.704 4.344-9.704 9.703V38h23.949v-2.797c0-5.359-4.345-9.703-9.703-9.703z" mask="url(#b)"/>
        </g>
        <g transform="translate(39 4)">
            <mask id="d" fill="#fff">
                <use xlink:href="#c"/>
            </mask>
            <circle cx="20.371" cy="15.788" r="7.329" stroke="#855B9F" stroke-width="2" mask="url(#d)"/>
        </g>
        <path stroke="#2196f3" stroke-width="2" d="M16 44.5c-.498-.573-.332-1.975-.333-2.75 0-.28.005-.559.015-.836.44-12.545 10.75-22.581 23.402-22.581 12.933 0 23.417 10.484 23.417 23.417 0 12.933-10.485 23.417-23.418 23.417a23.34 23.34 0 0 1-8.312-1.521c-.402-.153-.705-.519-1-.208"/>
        <path stroke="#2196f3" d="M16 42.5h46M19 30.5h40M25.266 53.525L59 53.527M39.661 65.355c-4.83-2.52-8.432-6.512-10.604-11.38-1.353-3.032-2.151-6.404-2.345-9.973a31.452 31.452 0 0 1 .02-3.746c.663-10.025 6.239-18.458 15.162-22.083"/>
        <path stroke="#2196f3" d="M38.9 65.355c8.317-4.339 12.994-13.044 12.994-23.074 0-10.905-5.711-20.243-15.228-24.108M38.5 18v47"/>
        <path stroke="#855B9F" stroke-width="2" d="M22.101 58.779h-4.297a9.18 9.18 0 0 0-9.179 9.18V70h22.656v-2.041a9.18 9.18 0 0 0-9.18-9.18zM26.789 49.958a6.934 6.934 0 1 1-13.868 0 6.934 6.934 0 0 1 13.868 0z"/>
        <g fill="#B095C1" fill-rule="nonzero">
            <path d="M72.641 45.467l-.202 1.998a.179.179 0 0 1-.194.159.177.177 0 0 1-.158-.194.333.333 0 0 1 .005-.031l.549-1.932zM71.645 51.233l-.613 1.788-.626 1.783a.635.635 0 1 1-1.173-.477l.797-1.714.809-1.708a.437.437 0 0 1 .806.328zM68.653 58.331l-1.028 1.586-1.048 1.571a.884.884 0 1 1-1.472-.983l.021-.031 1.114-1.525 1.135-1.511a.78.78 0 0 1 1.278.893zM64.007 64.528l-2.771 2.565a.986.986 0 1 1-1.34-1.448l.01-.009 2.807-2.526a.96.96 0 0 1 1.294 1.418zM58.007 69.445l-3.294 1.846a.961.961 0 0 1-.952-1.669l3.268-1.893a.988.988 0 0 1 .989 1.708l-.011.008zM51.025 72.798l-1.819.509-1.826.486a.784.784 0 0 1-.454-1.497l1.789-.609 1.796-.586a.888.888 0 0 1 .551 1.687l-.037.01zM43.483 74.362l-1.891.042-1.891.028a.438.438 0 0 1-.063-.872l1.876-.24 1.877-.226a.637.637 0 0 1 .152 1.264l-.06.004zM35.864 74.024l-1.963-.423 2.006.07a.177.177 0 0 1 .172.185.18.18 0 0 1-.215.168z"/>
        </g>
        <g fill="#B095C1" fill-rule="nonzero">
            <path d="M5.901 38l.202-1.998a.179.179 0 0 1 .194-.159.179.179 0 0 1 .153.225L5.901 38zM6.896 32.234l.614-1.788.626-1.783a.635.635 0 1 1 1.173.477l-.796 1.714-.81 1.708a.437.437 0 0 1-.807-.328zM9.889 25.137l1.028-1.586 1.048-1.571a.884.884 0 1 1 1.472.983l-.021.031-1.114 1.525-1.135 1.511a.78.78 0 0 1-1.278-.893zM14.535 18.938l2.771-2.565a.986.986 0 1 1 1.34 1.448l-.01.009-2.807 2.526a.96.96 0 0 1-1.294-1.418zM20.535 14.022l3.294-1.846a.96.96 0 0 1 .951 1.669l-3.268 1.893a.988.988 0 1 1-.977-1.716zM27.516 10.669l1.819-.509 1.826-.486a.784.784 0 0 1 .454 1.497l-1.789.609-1.795.586a.888.888 0 0 1-.551-1.686l.036-.011zM35.058 9.105l1.891-.042 1.891-.028a.438.438 0 0 1 .063.872l-1.876.24-1.877.226a.637.637 0 1 1-.154-1.264c.021-.002.042-.004.062-.004zM42.678 9.442l1.963.423-2.006-.07a.177.177 0 0 1-.172-.184.177.177 0 0 1 .184-.172c.01 0 .021.001.031.003z"/>
        </g>
        <path fill="#B095C1" fill-rule="nonzero" d="M63.6 39.333l-.005-.048"/>
    </g>
</svg>
