<svg xmlns="http://www.w3.org/2000/svg" width="48" height="45" viewBox="0 0 48 45"><defs><linearGradient id="a" x1="0%" y1="26.846%" y2="26.846%"><stop offset="0%" stop-color="#FE7A60"/><stop offset="100%" stop-color="#FD5E60"/></linearGradient></defs><path fill="url(#a)" fill-rule="evenodd" d="M43.957 26.236v-6.397a3.292 3.292 0 0 1 2.543 3.198 3.294 3.294 0 0 1-2.543 3.199zm-1.5.895a3.296 3.296 0 0 1-3.293 3.292h-3.293V15.65h3.293a3.298 3.298 0 0 1 3.293 3.293v8.188zm-30.326 3.292H8.838a3.296 3.296 0 0 1-3.294-3.292v-8.188a3.297 3.297 0 0 1 3.294-3.293h3.293v14.773zm-10.63-7.386a3.292 3.292 0 0 1 2.543-3.198v6.397a3.294 3.294 0 0 1-2.543-3.199zm20.157 15.8a2.244 2.244 0 0 1 0 4.485 2.239 2.239 0 0 1-2.211-1.919.735.735 0 0 0 .08-.324.73.73 0 0 0-.08-.323 2.239 2.239 0 0 1 2.211-1.919zM48 23.037c0-2.407-1.791-4.387-4.106-4.723-.313-2.344-2.302-4.164-4.73-4.164h-.299C38.471 6.284 31.965 0 24.001 0S9.531 6.284 9.137 14.15h-.299c-2.428 0-4.418 1.82-4.731 4.164C1.791 18.65 0 20.63 0 23.037c0 2.408 1.791 4.387 4.107 4.723a4.774 4.774 0 0 0 4.015 4.091c.337 5.298 4.564 9.548 9.863 9.939a3.748 3.748 0 0 0 3.673 3.032 3.747 3.747 0 0 0 3.742-3.743 3.745 3.745 0 0 0-3.742-3.742 3.747 3.747 0 0 0-3.657 2.953c-4.455-.373-8.011-3.924-8.375-8.367h3.255a.75.75 0 0 0 .75-.75V14.9a.75.75 0 0 0-.75-.75h-2.244C11.029 7.111 16.864 1.5 24.001 1.5c7.137 0 12.972 5.611 13.364 12.65H35.12a.75.75 0 0 0-.75.75v16.273c0 .415.336.75.75.75h4.044c2.428 0 4.417-1.819 4.73-4.163C46.209 27.424 48 25.445 48 23.037z"/></svg>