<svg xmlns="http://www.w3.org/2000/svg" width="45" height="48" viewBox="0 0 45 48"><defs><linearGradient id="a" x1="0%" y1="26.846%" y2="26.846%"><stop offset="0%" stop-color="#FE7A60"/><stop offset="100%" stop-color="#FD5E60"/></linearGradient></defs><g fill="url(#a)" fill-rule="evenodd" transform="translate(-382 -436)"><path d="M406.71 455.444v-17.93c9.722.384 17.561 8.216 17.946 17.93H406.71zM405.96 436a.75.75 0 0 0-.75.75v19.443c0 .414.335.75.75.75h19.461a.75.75 0 0 0 .75-.75c0-11.134-9.067-20.193-20.212-20.193zm10.728 40.223a1.54 1.54 0 0 1-.792 1.34v-2.678c.47.265.792.762.792 1.338m-3.084-4.58c0-.576.32-1.074.792-1.338v2.676a1.535 1.535 0 0 1-.792-1.338m3.084 0a.75.75 0 0 0 1.5 0 3.04 3.04 0 0 0-2.292-2.936v-.729a.75.75 0 0 0-1.5 0v.73a3.038 3.038 0 0 0-2.292 2.935c0 1.416.978 2.6 2.292 2.934v2.985a1.535 1.535 0 0 1-.792-1.339.75.75 0 0 0-1.5 0c0 1.417.978 2.6 2.292 2.936v.73a.75.75 0 0 0 1.5 0v-.73a3.039 3.039 0 0 0 2.292-2.936 3.038 3.038 0 0 0-2.292-2.935v-2.983c.47.264.792.762.792 1.338"/><path d="M415.146 482.502c-3.06 0-5.74-1.613-7.26-4.027a8.588 8.588 0 0 1-.518-.956c-.015-.032-.031-.061-.044-.092a8.788 8.788 0 0 1-.4-1.071c-.01-.04-.018-.078-.03-.116a8.75 8.75 0 0 1-.206-.951c-.014-.086-.028-.172-.04-.26a8.516 8.516 0 0 1-.077-1.095c0-4.725 3.846-8.568 8.575-8.568.407 0 .81.038 1.207.095.087.013.173.024.258.039.393.068.783.158 1.162.28l.077.03c.387.129.765.287 1.132.472l.077.037c.38.198.75.425 1.104.68 2.15 1.56 3.558 4.083 3.558 6.935 0 4.724-3.846 8.568-8.575 8.568m-9.002-4.061c-1.321.29-2.64.435-3.932.435-10.317 0-18.712-8.387-18.712-18.695 0-10.058 7.99-18.285 17.962-18.68v18.68c0 .414.336.75.75.75h18.696a18.573 18.573 0 0 1-.695 4.31c-.017-.01-.037-.016-.054-.026a9.967 9.967 0 0 0-2.256-.955c-.108-.03-.215-.056-.323-.083a9.763 9.763 0 0 0-.88-.177 5.87 5.87 0 0 0-.345-.053c-.397-.048-.8-.08-1.21-.08-5.555 0-10.074 4.516-10.074 10.067 0 .377.024.748.064 1.114.01.092.03.182.042.273.039.282.086.559.149.832.02.096.049.19.073.285a9.766 9.766 0 0 0 .689 1.877c.02.04.035.085.056.126m15.355-12.312c.603-1.95.924-3.946.924-5.948a.75.75 0 0 0-.75-.75h-18.711v-18.695a.75.75 0 0 0-.75-.75c-11.144 0-20.212 9.06-20.212 20.195 0 11.134 9.068 20.194 20.212 20.194 1.562 0 3.157-.207 4.748-.594 1.83 2.549 4.813 4.219 8.186 4.219 5.556 0 10.075-4.516 10.075-10.066a10.05 10.05 0 0 0-3.722-7.805"/></g></svg>