<svg xmlns="http://www.w3.org/2000/svg" width="47" height="48" viewBox="0 0 47 48"><defs><linearGradient id="a" x1="0%" y1="26.846%" y2="26.846%"><stop offset="0%" stop-color="#FE7A60"/><stop offset="100%" stop-color="#FD5E60"/></linearGradient></defs><g fill="url(#a)" fill-rule="evenodd" transform="translate(-513 -436)"><path d="M546.164 436.8c-7.448 0-13.51 5.506-13.51 12.274 0 .406.336.734.75.734s.75-.328.75-.734c0-5.958 5.388-10.804 12.01-10.804 6.623 0 12.01 4.846 12.01 10.804 0 8.098-9.1 13.216-12.527 15.14l-.62.351a.402.402 0 0 1-.076.036c0-1.495.002-3.4.007-4.118a.739.739 0 0 0-.644-.732 12.903 12.903 0 0 1-2.818-.72.755.755 0 0 0-.971.42.732.732 0 0 0 .428.95c.807.306 1.646.541 2.503.7-.003.935-.004 2.412-.004 3.6 0 .517.249.95.682 1.194.224.125.48.188.744.188.306 0 .622-.084.91-.25l.606-.344c3.632-2.042 13.28-7.467 13.28-16.415 0-6.768-6.06-12.273-13.51-12.273"/><path d="M541.256 450.997a.97.97 0 0 0 .981-.96.973.973 0 0 0-.98-.964.973.973 0 0 0-.981.963.97.97 0 0 0 .98.961m5.89-.961a.972.972 0 0 0-.98-.962.973.973 0 0 0-.984.962c0 .53.44.961.983.961a.97.97 0 0 0 .981-.961m4.907 0a.972.972 0 0 0-.98-.962.973.973 0 0 0-.983.962c0 .53.44.961.982.961a.97.97 0 0 0 .981-.961m-9.559 32.317h-27.946v-2.129a3.822 3.822 0 0 1 2.562-3.598l7.738-2.714a.739.739 0 0 0 .497-.692v-3.458a.734.734 0 0 0-.414-.656c-2.997-1.47-4.932-4.64-4.932-8.077 0-4.928 3.823-8.938 8.522-8.938s8.522 4.01 8.522 8.938c0 3.437-1.936 6.608-4.932 8.077a.732.732 0 0 0-.414.656v3.458c0 .31.199.586.497.692l7.737 2.714a3.822 3.822 0 0 1 2.563 3.598v2.129zm-2.057-7.11l-7.241-2.54v-2.499c3.263-1.797 5.347-5.347 5.347-9.175 0-5.737-4.496-10.406-10.022-10.406s-10.022 4.669-10.022 10.406c0 3.828 2.084 7.378 5.347 9.175v2.499l-7.242 2.54c-2.127.746-3.556 2.748-3.556 4.981v2.864c0 .404.336.733.75.733h29.446c.414 0 .75-.329.75-.733v-2.864c0-2.233-1.43-4.235-3.557-4.981z"/></g></svg>