<svg xmlns="http://www.w3.org/2000/svg" xmlns:xlink="http://www.w3.org/1999/xlink" width="847" height="641" viewBox="0 0 847 641">
    <defs>
        <linearGradient id="a" x1="50%" x2="50%" y1="-20.73%" y2="81.791%">
            <stop offset="0%" stop-color="#FFFFFE"/>
            <stop offset="100%" stop-color="#DFE9F5"/>
        </linearGradient>
        <linearGradient id="b" x1="50%" x2="50%" y1="-20.73%" y2="81.791%">
            <stop offset="0%" stop-color="#FFFFFE"/>
            <stop offset="100%" stop-color="#EBF1F9"/>
        </linearGradient>
        <linearGradient id="c" x1="13.587%" x2="127.623%" y1="100%" y2="-11.252%">
            <stop offset="0%" stop-color="#014C9E"/>
            <stop offset="100%" stop-color="#2A90D2"/>
        </linearGradient>
        <linearGradient id="d" x1="50%" x2="91.508%" y1="12.697%" y2="109.345%">
            <stop offset="0%" stop-color="#48C7FF"/>
            <stop offset="100%" stop-color="#1F7DC2"/>
        </linearGradient>
        <path id="f" d="M122.033 42.9L3.014.672C1.766.237.754 1.17.754 2.752V112.65c0 1.583 1.012 3.236 2.26 3.691l119.019 44.282c1.248.473 2.26-.45 2.26-2.063V46.639c0-1.613-1.012-3.287-2.26-3.738z"/>
        <filter id="e" width="121%" height="116.2%" x="-10.5%" y="-6.9%" filterUnits="objectBoundingBox">
            <feOffset dy="2" in="SourceAlpha" result="shadowOffsetOuter1"/>
            <feGaussianBlur in="shadowOffsetOuter1" result="shadowBlurOuter1" stdDeviation="4"/>
            <feComposite in="shadowBlurOuter1" in2="SourceAlpha" operator="out" result="shadowBlurOuter1"/>
            <feColorMatrix in="shadowBlurOuter1" values="0 0 0 0 0.862745098 0 0 0 0 0.917647059 0 0 0 0 0.984313725 0 0 0 1 0"/>
        </filter>
        <linearGradient id="g" x1="50%" x2="50%" y1="0%" y2="100%">
            <stop offset="0%" stop-color="#5BD5F2"/>
            <stop offset="100%" stop-color="#2EAAE1"/>
        </linearGradient>
        <path id="i" d="M158.865 48.66L2.34.21C1.093-.21.082.744.082 2.342v112.04c0 1.597 1.01 3.25 2.257 3.691l156.526 56.881c1.247.465 2.258-.484 2.258-2.12V52.421c0-1.635-1.01-3.319-2.258-3.76z"/>
        <filter id="h" width="134.8%" height="132%" x="-17.4%" y="-14.9%" filterUnits="objectBoundingBox">
            <feOffset dy="2" in="SourceAlpha" result="shadowOffsetOuter1"/>
            <feGaussianBlur in="shadowOffsetOuter1" result="shadowBlurOuter1" stdDeviation="9"/>
            <feComposite in="shadowBlurOuter1" in2="SourceAlpha" operator="out" result="shadowBlurOuter1"/>
            <feColorMatrix in="shadowBlurOuter1" values="0 0 0 0 0.862745098 0 0 0 0 0.917647059 0 0 0 0 0.984313725 0 0 0 1 0"/>
        </filter>
        <linearGradient id="j" x1="100%" x2="0%" y1="92.338%" y2="92.338%">
            <stop offset="0%" stop-color="#5BD4F2" stop-opacity="0"/>
            <stop offset="20.148%" stop-color="#78DC6C"/>
            <stop offset="51.787%" stop-color="#46C0E9"/>
            <stop offset="79.907%" stop-color="#32ADE2"/>
            <stop offset="100%" stop-color="#2EA9E0" stop-opacity="0"/>
        </linearGradient>
        <path id="l" d="M211.432 203.915l-57.358-21.072v116.106l57.358 22.043z"/>
        <filter id="k" width="145.3%" height="118.8%" x="-22.7%" y="-8%" filterUnits="objectBoundingBox">
            <feOffset dy="2" in="SourceAlpha" result="shadowOffsetOuter1"/>
            <feGaussianBlur in="shadowOffsetOuter1" result="shadowBlurOuter1" stdDeviation="4"/>
            <feComposite in="shadowBlurOuter1" in2="SourceAlpha" operator="out" result="shadowBlurOuter1"/>
            <feColorMatrix in="shadowBlurOuter1" values="0 0 0 0 0.862745098 0 0 0 0 0.917647059 0 0 0 0 0.984313725 0 0 0 1 0"/>
        </filter>
        <linearGradient id="m" x1="78.039%" x2="91.508%" y1="-31.455%" y2="109.345%">
            <stop offset="0%" stop-color="#48C7FF"/>
            <stop offset="100%" stop-color="#1F7DC2"/>
        </linearGradient>
        <linearGradient id="n" x1="118.862%" x2="5.244%" y1="-14.131%" y2="81.992%">
            <stop offset="0%" stop-color="#FFF"/>
            <stop offset="100%" stop-color="#68D75A" stop-opacity="0"/>
        </linearGradient>
        <linearGradient id="o" x1="-22.405%" x2="92.973%" y1="50%" y2="77.758%">
            <stop offset="0%" stop-color="#48C7FF"/>
            <stop offset="100%" stop-color="#0E71B9"/>
        </linearGradient>
        <linearGradient id="p" x1="86.396%" x2="220.22%" y1="-10.19%" y2="94.551%">
            <stop offset="0%" stop-color="#48C7FF"/>
            <stop offset="100%" stop-color="#FFF" stop-opacity="0"/>
        </linearGradient>
        <linearGradient id="q" x1="51.677%" x2="55.746%" y1="16.648%" y2="60.915%">
            <stop offset="0%" stop-color="#68D75A"/>
            <stop offset="100%" stop-color="#EBF3FC" stop-opacity="0"/>
        </linearGradient>
    </defs>
    <g fill="none" fill-rule="evenodd">
        <path fill="#D5E3F4" d="M618.469 1.184c5.374-2.042 10.245-1.357 13.762 1.399l8.899 5.263c-3.517-2.756-6.435-.176-11.81 1.866L519.13 51.584c-10.681 4.058-19.313 17.35-19.278 29.685l.75 279.633c.012 4.086 1.941 7.79 5.788 11.114l-10.997-6.053c-3.472-2.72-5.625-7.461-5.643-13.589L489 72.741c-.035-12.336 8.597-25.627 19.278-29.686l110.19-41.871z"/>
        <path fill="#43576D" fill-rule="nonzero" d="M494.889 236.977v.415c0 .43-.44.777-.982.777s-.981-.348-.981-.777v-.415c0-.429.44-.776.981-.776.542 0 .982.347.982.776z"/>
        <path fill="#91A7C3" fill-rule="nonzero" d="M494.889 114.47v20.054c0 .713-.66 1.291-1.472 1.291-.813 0-1.473-.578-1.473-1.29V114.47c0-.713.66-1.29 1.473-1.29.813 0 1.472.577 1.472 1.29z"/>
        <path fill="#FFFFFE" fill-rule="nonzero" d="M498.815 95.464l-8.834-2.46v-2.46l8.834 2.46zM498.815 343.475l-8.834-2.46v-2.46l8.834 2.46z"/>
        <path fill="#EBF1F9" d="M497.833 77.57l.754 279.28c.035 12.32 8.755 19.02 19.474 14.967L628.651 330c10.72-4.053 19.384-17.328 19.349-29.648l-.753-279.28C647.21 8.753 638.49 2.05 627.772 6.105l-110.59 41.818c-10.72 4.053-19.383 17.328-19.349 29.647z"/>
        <path fill="#FFFFFE" d="M505.685 80.47l.683 270.932c.031 11.22 7.93 17.324 17.64 13.631l101.559-38.613c9.71-3.692 17.557-15.782 17.525-27.002l-.682-270.931c-.031-11.22-7.93-17.323-17.64-13.631L523.21 53.47c-9.709 3.692-17.556 15.781-17.525 27z"/>
        <path fill="url(#a)" d="M70.176 337.025c-5.15-1.995-9.324-8.875-9.324-15.368s4.174-10.14 9.324-8.146c5.15 1.994 9.324 8.875 9.324 15.368s-4.175 10.14-9.324 8.146z" transform="matrix(-1 0 0 1 648 0)"/>
        <path fill="url(#b)" d="M70.667 336.062c-4.879-1.914-8.834-8.52-8.834-14.753 0-6.233 3.955-9.734 8.834-7.82 4.878 1.915 8.833 8.52 8.833 14.753 0 6.234-3.955 9.735-8.833 7.82z" transform="matrix(-1 0 0 1 648 0)"/>
        <path fill="url(#c)" d="M137.407 332.65L9.815 284.316V44.287L137.407 92.62" transform="matrix(-1 0 0 1 648 0)"/>
        <path fill="#43576D" d="M522.8 41.769c.57.487 1.504.687 2.08.452.187-.078.313-.192.379-.327.14-.284.016-.66-.37-.988-.574-.492-1.506-.694-2.084-.454-.39.163-.52.487-.38.831M593.896 13.937c1.14.73 3.008 1.03 4.159.678.374-.116.628-.287.76-.49.28-.426.031-.99-.74-1.483-1.15-.737-3.013-1.04-4.169-.68-.78.245-1.04.73-.76 1.247"/>
        <path fill="#D5E3F4" d="M565.556 55.838c.003 1.352.965 1.452 2.151 1.006l23.188-8.698c1.187-.446 2.146-1.266 2.142-2.619-.004-1.352-.969-1.446-2.155-1l-23.189 8.698c-1.186.445-2.141 1.26-2.137 2.613zM553.778 60.764c.003 1.346.927 1.446 2.067 1.002l4.709-1.829c1.14-.443 2.06-1.26 2.057-2.605-.004-1.346-.931-1.44-2.071-.997l-4.708 1.83c-1.14.442-2.058 1.253-2.054 2.599z"/>
        <g>
            <path fill="#EEF3FA" d="M476.376 390.442c-5.918-2.093-15.251-1.47-20.839 1.394L129.434 511.173h-27.033v7.099c-.435 1.97 1.086 3.91 4.625 5.163l239.593 116.37c5.917 2.094 15.286 1.527 20.913-1.272l353.242-129.955c3.05-1.517 4.377-3.377 4.01-5.096l.06-8.518-38.114 1.42-210.354-105.942z"/>
            <path fill="#C6E0FD" d="M476.32 382.09c-5.918-2.093-15.252-1.47-20.84 1.394L129.379 502.821h-27.034v7.099c-.434 1.97 1.087 3.91 4.626 5.163l239.593 116.37c5.916 2.094 15.285 1.527 20.913-1.272l353.242-129.955c3.05-1.518 4.377-3.377 4.01-5.096l.06-8.518-38.115 1.42L476.32 382.09z"/>
            <path fill="#F4F6F9" d="M720.185 484.149c5.922 2.1 6.162 6.075.533 8.882l-135.002 49.782c0 1.815-1.826 3.977-4.082 4.829l-68.769 25.98c-2.254.85-4.082-.402-4.082-2.44l-141.349 52.124c-5.628 2.806-14.998 3.374-20.915 1.274L106.9 507.925c-5.924-2.102-6.195-6.134-.607-9.005l349.157-131.457c5.589-2.871 14.924-3.496 20.842-1.398L720.185 484.15z"/>
            <path fill="#C6E0FD" d="M595.296 518.461c2.01.71 2.091 2.052.18 3l-119.921 43.996c-1.91.948-5.092 1.14-7.1.43l-81.34-39.396c-2.01-.71-2.102-2.072-.205-3.041l118.521-44.396c1.897-.97 5.066-1.18 7.075-.472l82.79 39.88z" opacity=".5"/>
            <path fill="#6A9ED8" d="M464.274 353.39c0 6.446-4.651 14.026-10.38 16.925l-340.19 129.108c-1.708.864-3.816 8.05-5.937 7.307-5-1.751-10.064-7.054-10.064-11.582v-311.47c0-6.437 4.668-14.007 10.405-16.895L452.286 47.659c8.27-1.877 16.2 3.046 16.2 9.491l-4.212 296.24z"/>
            <path fill="#262755" d="M468.928 356.652c0 6.434-4.652 13.998-10.382 16.89L112.655 504.509c-5.734 2.895-10.383.044-10.383-6.39V188.87c0-6.424 4.67-13.978 10.407-16.86L458.521 51.556c5.927-2.288 10.407.338 10.407 6.77v298.325z"/>
            <path fill="#FFF" d="M450.652 358.562L119.406 478.163V197.889L450.652 85.483z"/>
            <path fill="#262755" fill-rule="nonzero" d="M223.488 482.838l-5.832-2.732c-1.402-.657-1.267-1.688.295-2.26l15.246-5.57c1.562-.571 4.052-.499 5.454.158l5.831 2.732c1.402.657 1.267 1.688-.295 2.259l-15.246 5.57c-1.562.572-4.052.5-5.453-.157zm31.9 76.065l-5.496-2.574c-1.401-.657-1.267-1.688.295-2.26l15.246-5.57c1.562-.571 4.052-.499 5.454.158l5.495 2.574c1.402.657 1.33 1.665-.295 2.26l-15.246 5.57c-1.562.571-4.052.499-5.453-.158zm208.297-146.581l-13.682-6.41c-1.402-.657-1.267-1.688.295-2.259l15.246-5.571c1.562-.57 4.052-.499 5.454.158l13.682 6.41c1.402.657 1.267 1.688-.295 2.259l-15.246 5.57c-1.562.572-4.052.5-5.454-.157zm23.37-8.54l-13.683-6.41c-1.402-.656-1.267-1.687.295-2.258l15.246-5.571c1.562-.571 4.052-.499 5.454.158l13.682 6.41c1.402.656 1.267 1.688-.295 2.258l-15.246 5.572c-1.562.57-4.052.498-5.454-.159zM416.946 429.4l-13.682-6.41c-1.402-.657-1.267-1.688.295-2.258l15.246-5.572c1.562-.57 4.052-.498 5.454.159l13.682 6.41c1.402.656 1.267 1.687-.295 2.258l-15.246 5.571c-1.562.571-4.052.499-5.454-.158zm23.37-8.54l-13.683-6.409c-1.402-.657-1.267-1.688.295-2.259l15.246-5.57c1.562-.572 4.052-.5 5.454.157l13.682 6.41c1.402.657 1.267 1.688-.295 2.259l-15.246 5.571c-1.562.57-4.052.499-5.454-.158zm-70.358 25.71l-13.682-6.41c-1.402-.657-1.267-1.688.295-2.259l15.246-5.57c1.562-.571 4.052-.5 5.454.157l13.682 6.41c1.402.657 1.267 1.688-.295 2.26l-15.246 5.57c-1.562.571-4.052.499-5.454-.158zm23.432-8.562l-13.682-6.41c-1.402-.657-1.268-1.688.295-2.259l15.246-5.57c1.562-.572 4.052-.5 5.453.157l13.682 6.41c1.402.657 1.267 1.688-.295 2.259l-15.246 5.571c-1.562.57-4.052.499-5.453-.158zm-70.17 25.64l-13.682-6.41c-1.402-.656-1.267-1.687.295-2.258l15.246-5.571c1.562-.57 4.052-.499 5.454.158l13.682 6.41c1.402.657 1.267 1.688-.295 2.259l-15.246 5.57c-1.562.572-4.052.5-5.454-.157zm23.37-8.539l-13.683-6.41c-1.402-.656-1.267-1.688.295-2.258l15.246-5.571c1.562-.571 4.052-.499 5.454.158l13.682 6.41c1.402.656 1.267 1.688-.295 2.258l-15.246 5.571c-1.562.571-4.052.5-5.454-.158zm-46.926 17.147l-13.682-6.41c-1.402-.656-1.268-1.687.295-2.258l15.246-5.571c1.562-.571 4.051-.499 5.453.158l13.682 6.41c1.402.657 1.267 1.688-.295 2.258l-15.246 5.572c-1.562.57-4.052.498-5.453-.159zm-46.926 17.147l-13.682-6.41c-1.402-.656-1.267-1.687.295-2.258l15.246-5.571c1.562-.571 4.052-.499 5.454.158l13.682 6.41c1.402.657 1.267 1.688-.295 2.259l-15.246 5.57c-1.562.571-4.052.5-5.454-.158zm23.37-8.539l-13.683-6.41c-1.402-.657-1.267-1.688.295-2.258l15.246-5.572c1.562-.57 4.052-.498 5.454.159l13.682 6.41c1.402.656 1.267 1.687-.295 2.258l-15.246 5.571c-1.562.571-4.052.499-5.454-.158zm-70.17 25.64l-13.682-6.41c-1.402-.656-1.268-1.687.294-2.258l15.247-5.57c1.562-.572 4.051-.5 5.453.157l13.682 6.41c1.402.657 1.267 1.688-.295 2.259l-15.246 5.571c-1.562.57-4.052.499-5.453-.158zm28.885-8.403c-1.562.57-4.052.498-5.516-.135l-13.682-6.41c-1.402-.657-1.268-1.688.295-2.26l15.246-5.57c1.562-.571 4.051-.499 5.453.158l13.682 6.41c1.402.657 1.267 1.688-.295 2.259l-15.183 5.548zm52.106-17.638c1.438-.525 3.69-.46 4.98.145l13.682 6.41c1.29.604 1.168 1.537-.27 2.062l-15.246 5.571c-1.437.525-3.69.46-4.979-.144l-13.682-6.41c-1.29-.605-1.168-1.537.27-2.063l15.245-5.57zm-49.002 31.233l-13.682-6.41c-1.402-.657-1.267-1.688.295-2.259l15.246-5.57c1.562-.572 4.052-.5 5.454.157l13.682 6.41c1.401.657 1.267 1.688-.295 2.259l-15.246 5.571c-1.562.57-4.052.499-5.454-.158zm23.369-8.54l-13.682-6.41c-1.402-.656-1.267-1.687.295-2.258l15.246-5.571c1.562-.57 4.052-.499 5.454.158l13.682 6.41c1.401.657 1.267 1.688-.295 2.259l-15.246 5.57c-1.562.572-4.052.5-5.454-.157zm-70.17 25.641l-13.681-6.41c-1.402-.656-1.268-1.688.294-2.258l15.247-5.571c1.562-.571 4.051-.499 5.453.158l13.682 6.41c1.402.656 1.33 1.665-.295 2.258l-15.246 5.571c-1.562.571-4.052.5-5.454-.158zm23.37-8.539l-13.682-6.41c-1.402-.657-1.268-1.688.294-2.259l15.247-5.57c1.562-.572 4.051-.5 5.453.157l13.682 6.41c1.402.657 1.267 1.688-.295 2.26l-15.246 5.57c-1.562.571-4.052.499-5.454-.158zm187.577-68.542l-13.682-6.41c-1.402-.657-1.268-1.688.295-2.26l15.246-5.57c1.562-.571 4.051-.499 5.453.158l13.682 6.41c1.402.657 1.267 1.688-.295 2.259l-15.246 5.57c-1.562.571-4.052.5-5.453-.157zm-46.926 17.147l-13.682-6.41c-1.402-.657-1.267-1.688.295-2.26l15.246-5.57c1.562-.571 4.052-.499 5.454.158l13.682 6.41c1.402.657 1.267 1.688-.295 2.259l-15.246 5.57c-1.562.572-4.052.5-5.454-.157zm23.37-8.54l-13.683-6.41c-1.402-.656-1.267-1.688.295-2.258l15.246-5.571c1.562-.571 4.052-.5 5.454.158l13.682 6.41c1.402.656 1.267 1.688-.295 2.258l-15.246 5.571c-1.562.571-4.052.499-5.454-.158zm93.725-34.248l-13.682-6.41c-1.402-.657-1.267-1.688.295-2.259l15.246-5.57c1.562-.572 4.052-.5 5.454.157l13.682 6.41c1.402.657 1.267 1.688-.295 2.259l-15.246 5.571c-1.562.57-4.052.499-5.454-.158zm-46.925 17.147l-13.682-6.41c-1.402-.657-1.267-1.688.295-2.259l15.246-5.57c1.562-.572 4.052-.5 5.453.157l13.682 6.41c1.402.657 1.267 1.688-.295 2.259l-15.246 5.571c-1.562.57-4.052.499-5.453-.158zm23.369-8.54l-13.682-6.41c-1.402-.656-1.267-1.687.295-2.258l15.246-5.571c1.562-.57 4.052-.499 5.453.158l13.682 6.41c1.402.657 1.268 1.688-.295 2.259l-15.246 5.57c-1.562.572-4.052.5-5.453-.157zm-140.277 51.26l-13.682-6.41c-1.402-.658-1.267-1.689.295-2.26l15.246-5.57c1.562-.571 4.052-.5 5.454.158l13.682 6.41c1.401.656 1.267 1.687-.295 2.258l-15.246 5.571c-1.562.571-4.052.499-5.454-.158zm23.369-8.54l-13.682-6.41c-1.402-.657-1.267-1.688.295-2.259l15.246-5.57c1.562-.572 4.052-.5 5.454.157l13.682 6.41c1.401.657 1.267 1.688-.295 2.259l-15.246 5.571c-1.562.57-4.052.499-5.454-.158zm-31.864 28.945l-13.682-6.41c-1.402-.657-1.268-1.688.295-2.259l15.246-5.571c1.562-.57 4.052-.499 5.453.158l13.682 6.41c1.402.657 1.267 1.688-.295 2.259l-15.246 5.57c-1.562.572-4.052.5-5.453-.157zm-46.926 17.147l-13.682-6.41c-1.402-.657-1.267-1.688.295-2.259l15.246-5.571c1.562-.57 4.052-.499 5.454.158l13.682 6.41c1.402.657 1.267 1.688-.295 2.259l-15.246 5.57c-1.562.572-4.052.5-5.454-.157zm23.37-8.54l-13.683-6.41c-1.402-.656-1.267-1.687.295-2.258l15.246-5.571c1.562-.571 4.052-.499 5.454.158l13.682 6.41c1.402.657 1.267 1.688-.295 2.258l-15.246 5.572c-1.562.57-4.052.498-5.454-.159zm140.776-51.44l-13.682-6.41c-1.402-.657-1.267-1.689.295-2.26l15.246-5.57c1.562-.571 4.052-.5 5.453.158l13.682 6.41c1.402.656 1.268 1.688-.295 2.258l-15.246 5.571c-1.562.571-4.051.499-5.453-.158zm-46.926 17.146l-13.682-6.41c-1.402-.656-1.267-1.688.295-2.258l15.246-5.571c1.562-.571 4.052-.5 5.454.158l13.682 6.41c1.402.656 1.267 1.688-.295 2.258l-15.246 5.571c-1.562.571-4.052.5-5.454-.158zm23.37-8.539l-13.683-6.41c-1.402-.657-1.267-1.688.295-2.259l15.246-5.57c1.562-.572 4.052-.5 5.454.157l13.682 6.41c1.402.657 1.267 1.688-.295 2.26l-15.246 5.57c-1.562.571-4.052.499-5.454-.158zm93.725-34.248l-13.682-6.41c-1.401-.657-1.267-1.688.295-2.26l15.246-5.57c1.562-.571 4.052-.499 5.454.158l13.682 6.41c1.402.657 1.267 1.688-.295 2.259l-15.246 5.57c-1.562.572-4.052.5-5.454-.157zM440.38 455.02l-13.682-6.41c-1.402-.657-1.267-1.688.295-2.259l15.246-5.571c1.562-.57 4.052-.499 5.453.158l13.682 6.41c1.402.657 1.268 1.688-.295 2.259l-15.246 5.57c-1.562.572-4.051.5-5.453-.157zm23.369-8.54l-13.682-6.41c-1.402-.656-1.267-1.687.295-2.258l15.246-5.571c1.562-.571 4.052-.499 5.453.158l13.682 6.41c1.402.656 1.268 1.688-.294 2.258L469.2 446.64c-1.562.57-4.051.498-5.453-.159zm-134.823 51.417c-1.562.57-4.052.499-5.516-.135l-13.682-6.41c-1.402-.657-1.268-1.688.295-2.259l15.246-5.571c1.562-.57 4.052-.499 5.453.158l13.682 6.41c1.402.657 1.267 1.688-.295 2.259l-15.183 5.548zm17.915-8.697l-13.682-6.41c-1.402-.657-1.267-1.688.295-2.26l15.246-5.57c1.562-.571 4.052-.499 5.454.158l13.682 6.41c1.402.657 1.267 1.688-.295 2.259l-15.246 5.57c-1.562.572-4.052.5-5.454-.157zm-38.08 30.982l-13.683-6.41c-1.401-.657-1.267-1.688.295-2.259l15.246-5.57c1.563-.571 4.052-.5 5.454.157l13.682 6.41c1.402.657 1.267 1.688-.295 2.26l-15.246 5.57c-1.562.571-4.052.499-5.454-.158zm-23.557 8.608l-13.682-6.41c-1.402-.657-1.267-1.688.295-2.259l15.246-5.57c1.562-.572 4.052-.5 5.454.157l13.682 6.41c1.401.657 1.267 1.688-.295 2.259l-15.246 5.571c-1.563.57-4.052.499-5.454-.158zm140.776-51.441l-13.681-6.41c-1.402-.657-1.268-1.688.294-2.259l15.247-5.571c1.562-.57 4.051-.499 5.453.158l13.682 6.41c1.402.657 1.267 1.688-.295 2.259l-15.246 5.57c-1.562.572-4.052.5-5.454-.157zm-46.925 17.147l-13.682-6.41c-1.402-.657-1.267-1.688.295-2.259l15.246-5.571c1.562-.57 4.052-.499 5.454.158l13.682 6.41c1.401.657 1.267 1.688-.295 2.259l-15.246 5.57c-1.563.572-4.052.5-5.454-.157zm23.369-8.54l-13.682-6.41c-1.402-.656-1.267-1.687.295-2.258l15.246-5.571c1.562-.571 4.052-.499 5.454.158l13.682 6.41c1.401.657 1.267 1.688-.295 2.259l-15.246 5.57c-1.563.571-4.052.5-5.454-.158zm93.726-34.248l-13.682-6.41c-1.402-.657-1.267-1.688.295-2.259l15.246-5.57c1.562-.572 4.052-.5 5.454.157l13.682 6.41c1.401.657 1.267 1.688-.295 2.26l-15.246 5.57c-1.562.571-4.052.499-5.454-.158zm75.071-8.494l-15.476-7.25c-1.626-.762-1.604-1.846-.041-2.417l15.246-5.571c1.562-.57 4.164-.446 5.79.316l15.476 7.25c1.626.762 1.604 1.846.042 2.417l-15.247 5.57c-1.562.572-4.164.447-5.79-.315zm-23.369 8.54l-15.476-7.251c-1.626-.762-1.604-1.846-.041-2.417l15.246-5.57c1.562-.572 4.164-.447 5.79.315l15.476 7.25c1.626.763 1.604 1.846.042 2.417l-15.247 5.571c-1.562.57-4.164.446-5.79-.316zm-23.369 8.539l-15.476-7.251c-1.626-.762-1.604-1.846-.042-2.416l15.247-5.571c1.562-.571 4.164-.446 5.79.315l15.476 7.25c1.626.763 1.604 1.846.041 2.417l-15.246 5.571c-1.562.571-4.164.446-5.79-.315zm-199.261 72.812l-15.477-7.25c-1.626-.763-1.603-1.846-.041-2.417l15.246-5.571c1.562-.571 4.164-.446 5.79.316l15.476 7.25c1.626.762 1.604 1.846.042 2.416l-15.246 5.572c-1.562.57-4.164.446-5.79-.316zm124.002-64.25l-13.681-6.41c-1.402-.657-1.268-1.688.294-2.259l15.247-5.57c1.562-.571 4.051-.5 5.453.157l13.682 6.41c1.402.657 1.267 1.688-.295 2.26l-15.246 5.57c-1.562.571-4.052.499-5.454-.158zm23.37-8.54l-13.682-6.41c-1.402-.656-1.268-1.687.295-2.258l15.246-5.57c1.562-.572 4.051-.5 5.453.157l13.682 6.41c1.402.657 1.267 1.688-.295 2.259l-15.246 5.571c-1.562.57-4.052.499-5.453-.158zm-140.277 51.26l-13.682-6.41c-1.402-.657-1.267-1.689.295-2.26l15.246-5.57c1.562-.571 4.052-.5 5.454.158l13.681 6.41c1.402.656 1.268 1.688-.294 2.258l-15.247 5.571c-1.562.571-4.051.5-5.453-.158zm23.369-8.54l-13.682-6.41c-1.402-.657-1.267-1.688.295-2.259l15.246-5.57c1.562-.572 4.052-.5 5.454.157l13.682 6.41c1.401.657 1.267 1.688-.295 2.26l-15.246 5.57c-1.563.571-4.052.499-5.454-.158zm110.678-108.946l-5.832-2.732c-1.401-.657-1.267-1.688.295-2.26l15.246-5.57c1.563-.571 4.052-.499 5.454.158l5.832 2.732c1.402.657 1.267 1.688-.295 2.259l-15.246 5.57c-1.562.572-4.052.5-5.454-.157zm-24.556 8.973l-5.832-2.732c-1.402-.657-1.267-1.688.295-2.26l15.246-5.57c1.562-.571 4.052-.499 5.454.158l5.832 2.732c1.401.657 1.267 1.688-.295 2.259l-15.246 5.57c-1.563.572-4.052.5-5.454-.157zm-24.056 8.79l-5.832-2.732c-1.402-.657-1.267-1.688.295-2.259l15.246-5.57c1.562-.572 4.052-.5 5.454.157l5.831 2.733c1.402.656 1.267 1.687-.295 2.258l-15.246 5.571c-1.562.571-4.052.499-5.453-.158zm-24.557 8.973l-5.831-2.732c-1.402-.657-1.268-1.688.295-2.259l15.246-5.57c1.562-.571 4.051-.5 5.453.157l5.832 2.733c1.402.656 1.267 1.688-.295 2.258l-15.246 5.571c-1.562.571-4.052.499-5.454-.158zm-23.806 8.7l-5.832-2.733c-1.402-.657-1.267-1.688.295-2.258l15.246-5.572c1.562-.57 4.052-.498 5.454.159l5.832 2.732c1.401.656 1.267 1.688-.295 2.258l-15.246 5.571c-1.563.571-4.052.5-5.454-.158zm-24.619 8.995l-5.831-2.732c-1.402-.657-1.268-1.688.294-2.259l15.247-5.57c1.562-.571 4.051-.5 5.453.158l5.832 2.732c1.402.656 1.33 1.665-.295 2.258l-15.246 5.571c-1.562.571-4.052.499-5.454-.158zm-24.244 8.86l-5.831-2.733c-1.402-.657-1.267-1.688.295-2.259l15.246-5.57c1.562-.572 4.052-.5 5.453.157l5.832 2.733c1.402.656 1.267 1.687-.295 2.258l-15.246 5.571c-1.562.571-4.052.499-5.454-.158zm-24.556 8.972l-5.832-2.732c-1.401-.657-1.267-1.688.295-2.259l15.246-5.57c1.563-.571 4.052-.5 5.454.158l5.832 2.732c1.402.656 1.267 1.688-.295 2.258l-15.246 5.571c-1.562.571-4.052.499-5.454-.158zm-24.056 8.79l-5.832-2.731c-1.402-.657-1.267-1.688.295-2.26l15.246-5.57c1.562-.571 4.052-.499 5.454.158l5.831 2.732c1.402.657 1.268 1.688-.294 2.259l-15.247 5.57c-1.562.572-4.051.5-5.453-.157zm-24.556 8.974l-5.832-2.732c-1.402-.657-1.267-1.688.295-2.259l15.246-5.571c1.562-.57 4.052-.499 5.454.158l5.831 2.732c1.402.657 1.267 1.688-.295 2.259l-15.246 5.571c-1.562.57-4.052.499-5.453-.158zM198.93 491.81l-5.831-2.732c-1.402-.657-1.267-1.688.295-2.259l15.246-5.571c1.562-.57 4.052-.499 5.453.158l5.832 2.732c1.402.657 1.267 1.688-.295 2.259l-15.246 5.571c-1.562.57-4.052.499-5.454-.158zm-24.118 8.813l-5.832-2.732c-1.402-.657-1.267-1.688.295-2.259l15.246-5.57c1.562-.572 4.052-.5 5.454.157l5.831 2.732c1.402.657 1.267 1.688-.295 2.26l-15.246 5.57c-1.562.571-4.052.499-5.453-.158zm-24.62 8.996l-5.83-2.732c-1.403-.657-1.268-1.688.294-2.259l15.246-5.57c1.562-.572 4.052-.5 5.454.157l5.832 2.732c1.401.657 1.33 1.665-.295 2.26l-15.246 5.57c-1.563.571-4.052.499-5.454-.158zm345.67-92.176l-13.683-6.41c-1.402-.656-1.267-1.688.295-2.258l26.68-9.75c1.563-.57 4.053-.498 5.454.158l13.682 6.41c1.402.657 1.268 1.688-.295 2.259l-26.68 9.75c-1.562.57-4.052.498-5.454-.159zm20.201 12.07c-1.562.571-4.051.499-5.453-.158l-13.682-6.41c-1.402-.657-1.267-1.688.295-2.259l32.679-11.94c1.562-.572 4.052-.5 5.454.157l13.681 6.41c1.402.657 1.268 1.688-.294 2.259l-32.68 11.941zm3.017 13.815l-13.682-6.41c-1.402-.657-1.267-1.688.295-2.26l44.676-16.324c1.562-.571 4.052-.499 5.453.158l13.682 6.41c1.402.657 1.267 1.688-.295 2.259l-44.676 16.325c-1.562.57-4.052.498-5.453-.158zm-23.442 27.784l-16.15-7.566c-1.401-.657-1.267-1.688.295-2.259l20.995-7.671c1.562-.571 4.052-.499 5.454.158l16.149 7.566c1.402.656 1.267 1.688-.295 2.258l-20.995 7.672c-1.562.57-4.051.499-5.453-.158zm-145.963 53.336l-16.15-7.566c-1.401-.656-1.266-1.688.296-2.258l20.994-7.672c1.562-.57 4.052-.499 5.454.158l16.15 7.566c1.401.657 1.266 1.688-.296 2.259l-20.994 7.671c-1.562.571-4.052.499-5.454-.158zm-173.337-4.977c-1.563.57-4.052.499-5.392-.181l-13.681-6.41c-1.402-.657-1.268-1.688.294-2.259l27.368-10c1.563-.571 4.052-.499 5.454.158l13.682 6.41c1.402.657 1.267 1.688-.295 2.259l-27.43 10.023zm35.536 19.045l-13.682-6.41c-1.402-.656-1.268-1.688.295-2.258l32.991-12.056c1.562-.57 4.052-.498 5.454.158l13.682 6.41c1.402.657 1.267 1.688-.295 2.259l-32.992 12.055c-1.562.571-4.052.5-5.453-.158zm20.466 9.589l-13.682-6.41c-1.401-.657-1.267-1.688.295-2.259l44.551-16.28c1.563-.57 4.052-.498 5.454.159l13.682 6.41c1.402.657 1.267 1.688-.295 2.259l-44.551 16.28c-1.562.57-4.052.498-5.454-.159zm69.847-6.304l-5.495-2.575c-1.402-.657-1.267-1.688.295-2.259l15.246-5.57c1.562-.571 4.052-.5 5.454.158l5.495 2.574c1.402.657 1.267 1.688-.295 2.259l-15.246 5.57c-1.562.572-4.052.5-5.454-.157zm-23.431 8.562l-16.15-7.566c-1.401-.657-1.267-1.688.295-2.259l15.246-5.57c1.563-.572 4.052-.5 5.454.157l16.15 7.566c1.401.657 1.266 1.688-.296 2.259l-15.246 5.57c-1.562.572-4.052.5-5.453-.157zm99.974-36.532l-16.15-7.566c-1.4-.656-1.266-1.688.296-2.258l108.785-39.751c1.562-.571 4.051-.5 5.453.158l16.15 7.566c1.401.656 1.267 1.687-.296 2.258L384.185 513.99c-1.562.571-4.052.499-5.454-.158z"/>
            <path fill="#FFF" d="M156.568 199.391l258.107-89.241v235.295L156.568 443.72z"/>
            <path fill="url(#d)" d="M63.627 30.073L6.27 10.954V112.36l57.357 19.984z" transform="matrix(-1 0 0 1 430.872 109.743)"/>
            <path fill="#FFF" d="M371.658 196.61l48.533-16.187v11.314l-48.533 16.27zM371.658 214.555l48.533-16.3v11.315l-48.533 16.382zM397.027 176.082c6.092-2.116 11.03-10.225 11.03-18.116 0-7.892-4.938-12.598-11.03-10.508-6.092 2.094-11.03 10.213-11.03 18.13s4.938 12.614 11.03 10.494z"/>
            <path fill="#C6E0FD" d="M156.568 198.722l50.74-17.922v243.254l-50.74 19.695z"/>
            <path fill="#2B92D3" d="M164.29 216.096l7.72-2.628v9.647l-7.72 2.639zM176.423 212.139l22.06-7.787v3.802l-22.06 7.8zM176.423 231.614l22.06-7.849v3.803l-22.06 7.861zM176.423 251.09l22.06-7.91v3.802l-22.06 7.923zM176.423 271.711l22.06-7.976v3.803l-22.06 7.988zM176.423 291.187l22.06-8.038v3.803l-22.06 8.05zM176.423 310.663l22.06-8.1v3.803l-22.06 8.111zM164.29 235.606l7.72-2.65v9.648l-7.72 2.66zM164.29 256.263l7.72-2.672v9.647l-7.72 2.683zM164.29 275.773l7.72-2.694v9.647l-7.72 2.704zM164.29 295.282l7.72-2.715v9.647l-7.72 2.726zM164.29 314.792l7.72-2.737v9.647l-7.72 2.748z"/>
            <g opacity=".9" transform="matrix(-1 0 0 1 430.872 237.402)">
                <use fill="#000" filter="url(#e)" xlink:href="#f"/>
                <use fill="#FFF" xlink:href="#f"/>
                <path stroke="#F3F4F6" stroke-width="1.2" d="M121.83 43.466L2.817 1.238C2 .953 1.354 1.548 1.354 2.752V112.65c0 1.344.87 2.764 1.87 3.129l119.022 44.283c.811.308 1.447-.273 1.447-1.502V46.639c0-1.374-.87-2.813-1.863-3.173z"/>
            </g>
            <path stroke="#232425" stroke-linecap="square" stroke-width="1.2" d="M325.33 354.727l92.654-34.26M325.33 327.82l92.654-33.894M325.33 302.035l92.654-33.544" opacity=".2"/>
            <path fill="url(#g)" d="M102.232 110.735l-8.824-3.19v31.145l8.824 3.23zM86.79 65.345l-8.824-3.184v71.211l8.824 3.276zM72.45 88.083l-8.823-3.174v43.107l8.824 3.228zM57.009 99.728l-8.825-3.254v25.413l8.825 3.287zM42.67 83.4l-8.825-3.173v36.376l8.824 3.22z" transform="matrix(-1 0 0 1 430.872 237.402)"/>
            <path fill="#68D75A" d="M385.626 299.913l15.081-5.413c.404-.145.732.155.732.67v12.1c0 .516-.328 1.052-.732 1.197l-5.386 1.942-2.155 2.67-2.135-1.121-5.405 1.954c-.404.146-.732-.154-.732-.67v-12.13c0-.517.328-1.053.732-1.199z"/>
            <path fill="url(#g)" d="M28.33 102.635l-8.824-3.161v11.852l8.824 3.174z" transform="matrix(-1 0 0 1 430.872 237.402)"/>
            <path fill="#A8E7F8" d="M324.228 282.69l22.06-7.93v4.718l-22.06 7.945z"/>
            <path stroke="#D3D3D3" stroke-linecap="square" stroke-width="1.2" d="M325.33 380.513l92.654-34.61"/>
            <path fill="#A8E7F8" d="M359.524 269.412l22.06-7.837v4.693l-22.06 7.853zM395.924 257.438l22.06-7.747v4.668l-22.06 7.762z"/>
            <path fill="#D8D8D8" d="M294.446 163.974l14.34-5.195v3.053l-14.34 5.2zM334.155 152.597l14.34-5.13v3.034l-14.34 5.138z"/>
            <path fill="#3FBBE8" d="M267.422 236.699c1.523-.58 2.758-2.74 2.758-4.828s-1.235-3.313-2.758-2.736-2.757 2.74-2.757 4.829c0 2.09 1.234 3.314 2.757 2.735z" opacity=".3"/>
            <path fill="#3FBBE8" d="M266.87 238.837c2.437-.908 4.413-4.303 4.413-7.584 0-3.28-1.976-5.207-4.412-4.303-2.437.905-4.413 4.302-4.413 7.587 0 3.284 1.976 5.21 4.413 4.3z" opacity=".1"/>
            <path fill="#3FBBE8" d="M267.422 234.513c.914-.33 1.655-1.563 1.655-2.756 0-1.193-.741-1.895-1.655-1.567-.914.329-1.654 1.563-1.654 2.756 0 1.194.74 1.895 1.654 1.567z"/>
            <g>
                <g opacity=".9" transform="matrix(-1 0 0 1 356.297 134.292)">
                    <use fill="#000" filter="url(#h)" xlink:href="#i"/>
                    <use fill="#FFF" xlink:href="#i"/>
                    <path stroke="#F3F4F6" stroke-width="1.2" d="M158.675 49.23L2.148.778C1.333.504.682 1.12.682 2.342v112.04c0 1.357.867 2.774 1.862 3.127l156.53 56.883c.808.3 1.449-.302 1.449-1.558V52.421c0-1.392-.863-2.835-1.848-3.191z"/>
                </g>
                <path fill="#D8D8D8" d="M215.029 189.475l14.339-5.325v3.089l-14.34 5.33zM254.737 175.507l14.34-5.257v3.07l-14.34 5.263z"/>
                <path stroke="#C6E0FD" stroke-linecap="square" stroke-width="1.2" d="M205.101 257.133l141.187-50.551M205.101 241.16l141.187-50.225M205.101 226.329l141.187-49.924M205.101 273.106l141.187-50.877M205.101 290.22l141.187-51.225" opacity=".3"/>
                <path stroke="url(#j)" stroke-linecap="round" stroke-linejoin="round" stroke-width="2.4" d="M153.402 128.12c-6.417-4.342-11.9-10.116-16.45-17.32-6.823-10.787-8.528-15.723-16.327-10.934-7.798 4.779-9.87-1.932-10.844 6.347-.975 8.276-7.067 9.54-7.554 17.068-.488 7.527-6.824 12.585-7.555-2.762-.73-15.344-3.533-21.073-8.894-25.207-5.362-4.128-4.021 2.94-9.017.04-4.996-2.894-7.31-19.247-12.794-11.898-5.483 7.338-6.58.018-13.28-1.1-6.702-1.114-12.307-5.653-15.84-17.808-3.534-12.141-6.093-15.217-9.017-4.63-2.925 10.579-5.727 25.18-9.017 19.3-3.29-5.872-4.264-11.468-10.113-.68" opacity=".67" transform="matrix(-1 0 0 1 356.297 134.292)"/>
                <path fill="#68D75A" d="M208.962 195.578c.914-.42 1.654-1.979 1.654-3.483s-.74-2.384-1.654-1.966c-.914.42-1.655 1.979-1.655 3.484s.741 2.385 1.655 1.965zM249.774 181.613c.914-.415 1.654-1.963 1.654-3.458 0-1.496-.74-2.372-1.654-1.959-.914.414-1.655 1.963-1.655 3.46 0 1.495.741 2.372 1.655 1.957z"/>
            </g>
            <path fill="#68D75A" d="M289.483 170.034c.913-.41 1.654-1.948 1.654-3.435s-.74-2.36-1.654-1.95c-.914.409-1.655 1.947-1.655 3.434 0 1.488.74 2.36 1.655 1.95zM329.191 158.611c.914-.406 1.655-1.933 1.655-3.41 0-1.479-.741-2.35-1.655-1.944-.914.405-1.654 1.932-1.654 3.411s.74 2.349 1.654 1.943z"/>
            <g opacity=".9" transform="matrix(-1 0 0 1 430.872 109.743)">
                <use fill="#000" filter="url(#k)" xlink:href="#l"/>
                <use fill="#FFF" xlink:href="#l"/>
                <path stroke="#F3F4F6" stroke-width="1.2" d="M210.832 204.334l-56.158-20.631v114.834l56.158 21.582V204.334z"/>
            </g>
            <path fill="#68D75A" d="M224.956 324.753l22.06-8.202v4.787l-22.06 8.217z"/>
            <path fill="#E1F7FC" d="M243.212 401.101v3.84l31.38-11.562v-3.822l-31.38 11.544zm4.592-9.371v3.837l26.788-9.833v-3.823l-26.788 9.819zm-6.123-5.427v3.841l32.91-12.055v-3.823l-32.91 12.037zm-4.592-5.998v3.844l37.503-13.705v-3.823l-37.503 13.684zm4.592-9.366v3.841l32.91-11.982v-3.822l-32.91 11.963zm2.296-8.518v3.84l30.615-11.108v-3.823l-30.615 11.091zm-6.888-5.177v3.844l37.503-13.58v-3.823l-37.503 13.56zm3.061-8.796v3.842l34.442-12.427v-3.823l-34.442 12.408zm9.185-10.995v3.836l25.257-9.072v-3.822l-25.257 9.058zm-3.827-6.3v3.84l29.084-10.42v-3.824l-29.084 10.405z"/>
            <path fill="#2FA2DD" d="M254.353 396.019v3.822l-30.5 11.607v-3.84l30.5-11.59zm-4.464-5.961v3.825l-26.036 9.886v-3.84l26.036-9.871zm5.951-9.89v3.823l-31.987 12.098v-3.84l31.987-12.08zm-11.158-3.454v3.828l-20.83 7.868v-3.84l20.83-7.856zm-4.464-5.982v3.83l-16.365 6.169v-3.84l16.365-6.159zm-2.231-6.825v3.831l-14.134 5.314v-3.84l14.134-5.305zm6.695-10.162v3.828l-20.83 7.8v-3.84l20.83-7.788zm-2.976-6.55v3.83l-17.853 6.668v-3.84l17.853-6.658zm6.695-10.139v3.826l-24.548 9.132v-3.84l24.548-9.118zm3.72-9.023v3.824l-28.268 10.478v-3.84l28.268-10.462z"/>
        </g>
        <g>
            <path fill="#EEF3FA" d="M844.28 384.305c3.18 1.128 3.308 3.263.286 4.77l-156.18 58.26c-3.021 1.507-8.051 1.812-11.227.684l-92.023-44.436c-3.18-1.129-3.325-3.294-.326-4.835l153.966-58.895c3-1.542 8.01-1.877 11.188-.75l94.317 45.202z"/>
            <path fill="#C6E0FD" d="M845.572 365.15c1.676.594 1.213 5.405 1.178 6.32-.03.82-.755 1.673-2.184 2.385l-156.18 58.26c-3.021 1.507-8.051 1.812-11.227.685l-92.023-44.436c-1.738-.617-2.57-1.543-2.477-2.508.077-.8-.175-5.897 1.185-6.596l154.932-54.627c3-1.542 8.01-1.877 11.188-.75l95.608 41.267z"/>
            <path fill="#FFF" d="M844.28 364.316c3.18 1.128 3.308 3.263.286 4.77l-156.18 58.26c-3.021 1.507-8.051 1.812-11.227.684l-92.023-44.436c-3.18-1.129-3.325-3.294-.326-4.835l153.966-58.895c3-1.542 8.01-1.877 11.188-.75l94.317 45.202z"/>
            <path fill="#EEF3FC" d="M773.338 345.872L674.42 384.03l-23.836-11.847 98.919-37.042z"/>
            <path fill="#C6E0FD" d="M773.338 336.333l-98.564 37.815-24.19-11.505v-3.654l23.836 11.924 98.918-38.157z"/>
            <path fill="#E4F0FE" d="M674.774 374.148l-24.19-11.505v-3.654l23.836 11.924z"/>
            <path fill="#FFF" d="M773.338 332.756l-98.918 38.157-23.836-11.847 98.919-37.042z"/>
            <path fill="url(#m)" d="M60.184 50.432l19.907 10.142 24.19-8.91V28.93l-23.837 9.367-20.26-10.52z" transform="translate(663.831 281.904)"/>
            <path fill="url(#d)" d="M80.09 60.574l24.19-8.91V28.93l-23.836 9.367z" transform="translate(663.831 281.904)"/>
            <path fill="#319DDC" d="M724.015 309.68l20.26 10.52 23.837-9.289-20.26-9.405z"/>
            <path fill="url(#m)" d="M30.39 61.545l19.906 10.14 24.19-8.91V24.542L50.65 33.908l-20.26-10.52z" transform="translate(663.831 281.904)"/>
            <path fill="url(#d)" d="M50.296 71.686l24.19-8.91V24.54L50.65 33.908z" transform="translate(663.831 281.904)"/>
            <path fill="#319DDC" d="M694.22 305.291l20.261 10.52 23.836-9.289-20.26-9.405z"/>
            <path fill="#68D75A" d="M664.426 355.886l19.907 8.816 24.19-8.91v-64.468l-23.837 9.367-20.26-10.52z" opacity=".9"/>
            <path fill="url(#n)" d="M20.501 82.798l24.19-8.91V9.42l-23.836 9.367z" transform="translate(663.831 281.904)"/>
            <path fill="#97ED8C" d="M664.426 290.17l20.26 10.52 23.836-9.289-20.26-9.405z" opacity=".9"/>
            <g>
                <path fill="#EEF3FC" d="M806.708 362.566l-98.918 38.157-23.836-11.847 98.919-37.042z"/>
                <path fill="#C6E0FD" d="M806.708 353.027l-98.564 37.815-24.19-11.505v-3.655l23.836 11.925 98.918-38.158z"/>
                <path fill="#E4F0FE" d="M708.144 390.842l-24.19-11.505v-3.655l23.836 11.925z"/>
                <path fill="#FFF" d="M806.708 349.45l-98.918 38.157-23.836-11.847 98.919-37.042z"/>
                <path fill="url(#m)" d="M60.184 32.852l20.186 9.149 23.55-9.429v-3.535l-23.55 9.428-20.186-11.032z" transform="translate(698.274 316.72)"/>
                <path fill="url(#d)" d="M80.37 42l23.55-9.428v-3.535l-23.55 9.428z" transform="translate(698.274 316.72)"/>
                <path fill="#319DDC" d="M757.886 344.783l20.758 10.402 23.55-9.428-20.473-9.148z"/>
                <path fill="url(#m)" d="M30.39 43.965l19.906 10.14 24.19-8.91V24.323l-24.131 8.514-19.966-9.692z" transform="translate(698.274 316.72)"/>
                <path fill="url(#d)" d="M50.296 54.106l24.19-8.91V24.322l-24.131 8.514z" transform="translate(698.274 316.72)"/>
                <path fill="#319DDC" d="M728.663 339.864l19.965 9.692 24.128-8.513-20.178-9.738z"/>
                <path fill="#68D75A" d="M698.868 373.123l19.907 8.815 24.19-8.91v-47.23l-23.48 9.173-19.87-10.607z" opacity=".9"/>
                <path fill="url(#n)" d="M20.501 65.218l24.19-8.91.365-47.338L21.21 18.25z" transform="translate(698.274 316.72)"/>
                <path fill="#97ED8C" d="M699.614 324.364l19.87 10.607 23.846-9.28-21.22-8.97z" opacity=".9"/>
            </g>
            <g>
                <path fill="#EEF3FC" d="M667.27 386.414l-20.261 8.347-23.836-11.847 20.26-7.232z"/>
                <path fill="url(#m)" d="M44.096 14.309l-20.26 7.775L0 10.809V7.154L23.836 19.08l20.26-8.347z" transform="translate(623.173 362.566)"/>
                <path fill="url(#m)" d="M23.836 22.084L0 10.809V7.154L23.836 19.08z" transform="translate(623.173 362.566)"/>
                <path fill="#319DDC" d="M667.27 373.298l-20.261 8.347-23.836-11.847 20.26-7.232z"/>
            </g>
            <g>
                <path fill="#EEF3FC" d="M700.64 403.108l-20.261 8.347-23.836-11.847 20.26-7.232z"/>
                <path fill="url(#m)" d="M44.096 14.309l-20.26 7.58L0 10.81V7.154L23.836 19.08l20.26-8.347z" transform="translate(656.543 379.26)"/>
                <path fill="url(#m)" d="M23.836 21.89L0 10.809V7.154L23.836 19.08z" transform="translate(656.543 379.26)"/>
                <path fill="#319DDC" d="M700.64 389.991l-20.261 8.347-23.836-11.847 20.26-7.231z"/>
            </g>
        </g>
        <g>
            <path fill="#C6E0FD" d="M584.5 218.953c20.71-7.503 37.5-29.58 37.5-49.309 0-19.73-16.79-29.64-37.5-22.138-20.71 7.504-37.5 29.58-37.5 49.31 0 7.522 2.44 13.617 6.609 17.864-.802 4.857-1.938 9.425-3.41 13.703-.542 1.377-.585 2.225-.13 2.544.211.148 2.94 2.527 4.988 4.029 1.04.763 6.933-8.52 12.25-13.741 5.15.67 10.996-.017 17.193-2.262z"/>
            <path fill="#FFF" d="M589.5 222.892c20.71-7.497 37.5-29.555 37.5-49.268s-16.79-29.617-37.5-22.12S552 181.06 552 200.772c0 7.516 2.44 13.606 6.609 17.85-.802 4.853-1.938 9.417-3.41 13.691-.92 2.334-.403 3.147 1.55 2.44 2.784-1.007 10.241-4.385 15.558-9.602 5.15.67 10.996-.016 17.193-2.26z"/>
            <path fill="url(#o)" d="M55.063 94.086c7.413 2.673 8.865 8.461 15.13 7.872 6.688-.628 18.083-7.846 22.613-11.69C99.192 84.85 103 76.495 103 65.922c0-25.1-21.462-53.186-47.937-62.732C40.63-2.015 27.687-.634 18.898 5.765 14.702 8.822 8.555 11.877 6.544 17.051c-1.502 3.866.583 9.42.583 14.302 0 9.57 3.12 19.574 8.448 28.82-1.024 5.44-2.478 10.204-4.36 14.29-1.174 2.124-.514 3.636 1.982 4.536 3.56 1.283 13.092 3.857 19.889 2.115 6.583 5.6 14.056 10.116 21.977 12.972z" transform="matrix(-1 0 0 1 666 94)"/>
            <path fill="url(#d)" d="M48 98.82c26.51 9.519 48-3.055 48-28.085S74.51 17.7 48 8.18C21.49-1.34 0 11.235 0 36.265c0 9.543 3.124 19.518 8.459 28.737-1.026 5.427-2.48 10.177-4.365 14.25-1.176 2.119-.515 3.626 1.984 4.524 3.564 1.28 13.11 3.846 19.915 2.11C32.585 91.468 40.068 95.971 48 98.82z" transform="matrix(-1 0 0 1 666 94)"/>
            <path fill="#F7FBFF" d="M633.719 147.062c2.917-1.078 5.281-4.58 5.281-7.824 0-3.243-2.364-4.998-5.281-3.92-2.917 1.078-5.281 4.58-5.281 7.824 0 3.243 2.364 4.998 5.281 3.92zm-15.781 5.833c2.917-1.078 5.281-4.58 5.281-7.824 0-3.243-2.364-4.998-5.281-3.92-2.917 1.078-5.281 4.58-5.281 7.824 0 3.243 2.364 4.998 5.281 3.92zm-15.657 5.787c2.917-1.078 5.281-4.58 5.281-7.824 0-3.243-2.364-4.998-5.281-3.92-2.917 1.078-5.281 4.58-5.281 7.824 0 3.243 2.364 4.998 5.281 3.92z"/>
        </g>
        <g>
            <g opacity=".85">
                <path fill="#C6E0FD" d="M180.651 425.345L6.835 485.97a4.8 4.8 0 0 1-6.38-4.532V321.389a7.2 7.2 0 0 1 4.974-6.847l173.768-56.459a4.8 4.8 0 0 1 6.283 4.565v155.899a7.2 7.2 0 0 1-4.829 6.798z"/>
                <path fill="#FFF" d="M185.146 426.95L9.808 487.617a4.8 4.8 0 0 1-6.37-4.537v-160.04a7.2 7.2 0 0 1 5.008-6.857l176.66-56.494a4.8 4.8 0 0 1 6.263 4.614L189.99 420.21a7.2 7.2 0 0 1-4.845 6.74z"/>
            </g>
            <path fill="url(#d)" d="M165.597 24.183l.339-20.349a3.6 3.6 0 0 0-4.697-3.488L2.7 51.104a3.6 3.6 0 0 0-2.502 3.4L.012 78.016l165.585-53.833z" transform="translate(14.15 274.603)"/>
            <path fill="#FFF" d="M30.908 337.75c2.523-.864 4.567-3.836 4.565-6.637-.002-2.802-2.05-4.37-4.573-3.506-2.524.865-4.568 3.837-4.566 6.638.003 2.801 2.05 4.37 4.574 3.506z"/>
            <path stroke="#68D75A" stroke-linecap="round" stroke-linejoin="round" stroke-width="1.56" d="M29.38 431.92l10.353-9.772c4.446-4.197 11.452-3.995 15.65.451.446.473.85.985 1.207 1.529a8.654 8.654 0 0 0 14.479-.01l.516-.789c3.51-5.367 10.705-6.873 16.072-3.363.243.158.48.326.71.502a23.51 23.51 0 0 0 23.986 2.764c2.568-1.161 4.896-2.412 6.984-3.753 8.104-5.206 22.609-13.247 28.515-6.624 3.937 4.416 8.883-2.668 14.836-21.25"/>
            <path fill="url(#p)" d="M91.387 76.89l16.754-5.744.03 37.192-16.755 5.744zM114.234 55.53l16.754-5.745.04 50.717-16.755 5.744zM137.08 57.843l16.755-5.744.031 40.574-16.754 5.743z" transform="translate(14.15 274.603)"/>
            <path fill="url(#q)" d="M15.231 157.316l10.35-9.768c4.44-4.193 11.445-3.996 15.643.44.45.475.857.99 1.216 1.536 2.617 3.992 7.979 5.108 11.976 2.495a8.644 8.644 0 0 0 2.503-2.504l.52-.794c3.503-5.357 10.692-6.865 16.057-3.366.247.16.487.33.72.51a23.518 23.518 0 0 0 23.993 2.761c2.566-1.16 4.892-2.41 6.978-3.75 8.104-5.206 22.61-13.247 28.515-6.624 5.907 6.623 15.357-23.117 15.357-21.654v27.669L15.23 190.189v-32.873z" opacity=".5" transform="translate(14.15 274.603)"/>
            <path stroke="#D0E2EF" stroke-linecap="round" stroke-width="1.404" d="M21.765 468.143l150.789-51.692"/>
            <path fill="#C0E8FB" d="M21.765 359.919l63.97-21.93.017 20.286-63.971 21.93zM21.765 385.284l63.97-21.93.026 32.12-63.971 21.93z"/>
        </g>
    </g>
</svg>
