<?xml version="1.0" encoding="UTF-8"?>
<svg width="39px" height="38px" viewBox="0 0 39 38" version="1.1" xmlns="http://www.w3.org/2000/svg" xmlns:xlink="http://www.w3.org/1999/xlink">
    <!-- Generator: Sketch 49 (51002) - http://www.bohemiancoding.com/sketch -->
    <title>icon - Collaborate</title>
    <desc>Created with Sketch.</desc>
    <defs></defs>
    <g id="Page-1" stroke="none" stroke-width="1" fill="none" fill-rule="evenodd">
        <g id="Homepage---Deskop-verion" transform="translate(-855.000000, -2514.000000)">
            <g id="Collaborate---Section" transform="translate(190.000000, 2368.000000)">
                <g id="Collaborate---Text" transform="translate(660.000000, 146.000000)">
                    <g id="icon---Collaborate" transform="translate(4.000000, 0.000000)">
                        <rect id="Rectangle" x="0" y="0" width="40" height="40"></rect>
                        <g id="Group-14" transform="translate(2.434375, 15.861907)" stroke="#303A48" stroke-linecap="round" stroke-linejoin="round" stroke-width="2">
                            <g id="Group-13" transform="translate(0.000000, 0.000000)">
                                <path d="M8.02294558,0 L8.02294558,0 C10.0679996,-3.75670339e-16 11.7258435,1.65784389 11.7258435,3.70289796 L11.7258435,8.15181269 C11.7258435,10.1968668 10.0679996,11.8547106 8.02294558,11.8547106 L8.02294558,11.8547106 C5.9778915,11.8547106 4.32004762,10.1968668 4.32004762,8.15181269 L4.32004762,3.70289796 C4.32004762,1.65784389 5.9778915,3.75670339e-16 8.02294558,0 Z" id="Rectangle-4"></path>
                                <path d="M8.02294558,11.8547106 L8.02294558,11.8547106 C12.4538961,11.8547106 16.0458912,15.4467057 16.0458912,19.8776562 L16.0458912,20.5897606 L0,20.5897606 L0,19.8776562 C-5.42634934e-16,15.4467057 3.59199509,11.8547106 8.02294558,11.8547106 Z" id="Rectangle-8"></path>
                            </g>
                        </g>
                        <g id="Group-14-Copy" transform="translate(30.096216, 26.361907) scale(-1, 1) translate(-30.096216, -26.361907) translate(21.596216, 15.861907)" stroke="#303A48" stroke-linecap="round" stroke-linejoin="round" stroke-width="2">
                            <g id="Group-13" transform="translate(0.000000, 0.000000)">
                                <path d="M8.02294558,0 L8.02294558,0 C10.0679996,-3.75670339e-16 11.7258435,1.65784389 11.7258435,3.70289796 L11.7258435,8.15181269 C11.7258435,10.1968668 10.0679996,11.8547106 8.02294558,11.8547106 L8.02294558,11.8547106 C5.9778915,11.8547106 4.32004762,10.1968668 4.32004762,8.15181269 L4.32004762,3.70289796 C4.32004762,1.65784389 5.9778915,3.75670339e-16 8.02294558,0 Z" id="Rectangle-4"></path>
                                <path d="M8.02294558,11.8547106 L8.02294558,11.8547106 C12.4538961,11.8547106 16.0458912,15.4467057 16.0458912,19.8776562 L16.0458912,20.5897606 L0,20.5897606 L1.77635684e-15,19.8776562 C1.23372191e-15,15.4467057 3.59199509,11.8547106 8.02294558,11.8547106 Z" id="Rectangle-8"></path>
                            </g>
                        </g>
                        <g id="Group-21" transform="translate(12.261568, 0.994274)" stroke="#2196F3" stroke-linecap="round" stroke-linejoin="round" stroke-width="2">
                            <path d="M1.43903116,0.48008559 L11.7319036,0.48008559 C12.2841884,0.48008559 12.7319036,0.92780084 12.7319036,1.48008559 L12.7319036,10.660726 C12.7319036,10.9368684 12.508046,11.160726 12.2319036,11.160726 C12.1287851,11.160726 12.0281887,11.1288432 11.9438956,11.0694452 L9.60191757,9.41914771 C9.4333315,9.3003519 9.23213865,9.23658618 9.02590163,9.23658618 L1.43903116,9.23658618 C0.886746409,9.23658618 0.439031159,8.78887092 0.439031159,8.23658618 L0.439031159,1.48008559 C0.439031159,0.92780084 0.886746409,0.48008559 1.43903116,0.48008559 Z" id="Rectangle-9"></path>
                            <path d="M5.03836815,4.8332411 L7.64396742,4.8332411" id="Path-5"></path>
                        </g>
                    </g>
                </g>
            </g>
        </g>
    </g>
</svg>