<svg width="24px" height="23px" viewBox="0 0 24 23" version="1.1" xmlns="http://www.w3.org/2000/svg" xmlns:xlink="http://www.w3.org/1999/xlink">
    <defs></defs>
    <g id="Page-1" stroke="none" stroke-width="1" fill="none" fill-rule="evenodd">
        <g id="Group-10" transform="translate(-137.000000, -292.000000)" fill="#00E4FF" fill-rule="nonzero">
            <g id="003-paint-brush" transform="translate(137.000000, 292.000000)">
                <path d="M23.6736842,0.353169591 C22.9865263,-0.333894737 21.6083743,0.0581052632 19.3364678,1.58718129 C17.4064561,2.88617544 15.0914152,4.85356725 12.8178246,7.12715789 C9.44720468,10.497731 6.8845848,13.8071111 6.03134503,15.8503392 C5.89090058,15.7994386 5.74526316,15.7587368 5.59499415,15.7290292 C4.71209357,15.554386 3.75316959,15.7776842 2.96397661,16.3412398 C1.83148538,17.1499415 1.53155556,18.3047953 1.488,18.499462 C1.24959064,19.389848 0.798081871,20.2393918 0.181754386,20.9569591 C-0.0164678363,21.1877427 0.0061754386,21.5346901 0.232748538,21.7378246 C1.02465497,22.4475322 2.03766082,22.8035088 3.09132164,22.8035088 C4.10680702,22.8035088 5.16009357,22.4727953 6.08907602,21.8094035 C6.52467836,21.4983392 6.85445614,21.154386 6.91831579,21.0863158 C7.70764912,20.2380819 8.04280702,19.1258947 7.87653801,18.1097076 C9.88121637,17.3910643 13.3760936,14.7328187 16.8997427,11.2091696 C19.1733333,8.93557895 21.1407719,6.62049123 22.4397193,4.69052632 C23.9687485,2.41852632 24.3608421,1.04037427 23.6736842,0.353169591 Z M6.10021053,20.3235088 C6.07017544,20.3555556 5.79635088,20.6440702 5.43915789,20.8990409 C4.14175439,21.8253567 2.55335673,21.9324912 1.39962573,21.2192749 C1.93992982,20.4785029 2.34147368,19.643462 2.57216374,18.7746433 L2.57216374,18.7745965 C2.57473684,18.7648655 2.57707602,18.7550409 2.5791345,18.7451228 C2.58105263,18.7362807 2.77529825,17.8502924 3.61394152,17.251462 C4.15335673,16.8661988 4.79649123,16.7112515 5.37819883,16.8262456 C5.85796491,16.9210292 6.26128655,17.1949006 6.51387135,17.5972398 C7.00954386,18.386807 6.83527485,19.5336608 6.10021053,20.3235088 Z M7.49553216,17.0602573 C7.48407018,17.041076 7.31447953,16.6967485 6.99850292,16.4408421 C7.27073684,15.7130292 7.85679532,14.7293099 8.67363743,13.5997193 L10.4259181,15.352 C9.19321637,16.239345 8.18311111,16.8177778 7.49553216,17.0602573 Z M11.3309006,14.6753216 L9.35190643,12.6963275 C9.69389474,12.2560936 10.0639064,11.8000936 10.4582456,11.3336608 L12.6947836,13.5701988 C12.2214269,13.9699649 11.7655673,14.3388538 11.3309006,14.6753216 Z M21.3407719,4.31653801 C20.081076,6.13716959 18.2229708,8.30414035 16.1088655,10.418152 C15.2212398,11.3057778 14.3607018,12.1132164 13.5430643,12.8365848 L11.1918596,10.4853801 C11.9375906,9.64177778 12.7506901,8.776 13.6087485,7.91803509 C15.722807,5.80392982 17.8897778,3.94587135 19.7103626,2.68603509 C21.9520468,1.13492398 22.7255673,1.13244444 22.874152,1.15274854 C22.8945497,1.30119298 22.8918363,2.07499415 21.3407719,4.31653801 Z" id="Shape"></path>
                <path d="M5.6260117,18.8125848 C5.35546199,18.6636725 5.01539181,18.7622456 4.86643275,19.0328421 C4.85136842,19.0602105 4.83316959,19.0858012 4.81225731,19.1089123 C4.77043275,19.1524211 4.63298246,19.2852865 4.49019883,19.3873216 C4.27359064,19.5419415 4.03985965,19.6527719 3.79546199,19.7167251 C3.49665497,19.7949006 3.31784795,20.1004912 3.39602339,20.3992982 C3.46180117,20.6506199 3.68842105,20.817076 3.93660819,20.817076 C3.98348538,20.817076 4.03106433,20.8111345 4.07854971,20.7987836 C4.45511111,20.7002573 4.81230409,20.5316491 5.14021053,20.2975439 C5.35069006,20.1472281 5.63008187,19.8720468 5.632,19.8699415 C5.7151345,19.7797895 5.78727485,19.6795789 5.84640936,19.572117 C5.99527485,19.3015205 5.89660819,18.9614503 5.6260117,18.8125848 Z" id="Shape"></path>
            </g>
        </g>
    </g>
</svg>