<?xml version="1.0" encoding="UTF-8"?>
<svg width="24px" height="24px" viewBox="0 0 24 24" version="1.1" xmlns="http://www.w3.org/2000/svg" xmlns:xlink="http://www.w3.org/1999/xlink">
    <!-- Generator: Sketch 48.2 (47327) - http://www.bohemiancoding.com/sketch -->
    <title>005-network</title>
    <desc>Created with Sketch.</desc>
    <defs></defs>
    <g id="sonder_onepager" stroke="none" stroke-width="1" fill="none" fill-rule="evenodd" transform="translate(-222.000000, -1555.000000)">
        <g id="005-network" transform="translate(222.000000, 1555.000000)" fill="#00E4FF" fill-rule="nonzero">
            <path d="M12.5,5 C13.8784149,5 15,3.87842538 15,2.50002344 C15,1.12162149 13.8784149,0 12.5,0 C11.1215851,0 10,1.12157462 10,2.49997656 C10,3.87837851 11.1215383,5 12.5,5 Z M12.5,0.99998125 C13.3271614,0.99998125 14.0000094,1.6728229 14.0000094,2.49997656 C14.0000094,3.32713023 13.3271614,3.99997188 12.5,3.99997188 C11.6728386,3.99997188 10.9999906,3.32713023 10.9999906,2.49997656 C10.9999906,1.6728229 11.6728386,0.99998125 12.5,0.99998125 Z" id="Shape"></path>
            <path d="M9.07128125,11 L15.9287188,11 C16.5195312,11 17,10.4238021 17,9.71526042 L17,9.359375 C17,8.43109375 16.5864219,7.583125 15.9199063,7.14635417 C15.1215781,6.62333333 13.880375,6 12.5,6 C11.119625,6 9.87842188,6.62338542 9.08009375,7.14635417 C8.41357813,7.58307292 8,8.43109375 8,9.359375 L8,9.71526042 C8,10.4238542 8.48046875,11 9.07128125,11 Z M8.99998438,9.359375 C8.99998438,8.83041667 9.2309375,8.33776042 9.58789063,8.10338542 C10.2788281,7.65088542 11.3452344,7.11109375 12.5,7.11109375 C13.6547656,7.11109375 14.7211719,7.6509375 15.4121094,8.10338542 C15.7690625,8.33776042 16.0000156,8.83036458 16.0000156,9.359375 L16.0000156,9.71526042 C16.0000156,9.83083333 15.9409531,9.88885417 15.9287188,9.88885417 L9.07128125,9.88885417 C9.05909375,9.88885417 8.99998438,9.83078125 8.99998438,9.71526042 L8.99998438,9.359375 Z" id="Shape"></path>
            <path d="M5.5,18 C6.87841487,18 8,16.8784254 8,15.5000234 C8,14.1216215 6.87841487,13 5.5,13 C4.12158513,13 3,14.1215746 3,15.4999766 C3,16.8783785 4.12158513,18 5.5,18 Z M5.5,13.9999813 C6.32716142,13.9999813 7.00000938,14.6728229 7.00000938,15.4999766 C7.00000938,16.3271302 6.32716142,16.9999719 5.5,16.9999719 C4.67283858,16.9999719 3.99999062,16.3271302 3.99999062,15.4999766 C3.99999062,14.6728229 4.67283858,13.9999813 5.5,13.9999813 Z" id="Shape"></path>
            <path d="M7.91990625,20.1463661 C7.12157813,19.6233398 5.880375,19 4.5,19 C3.119625,19 1.87842187,19.6233919 1.08009375,20.1463661 C0.413578125,20.5830894 0,21.431067 0,22.3593579 L0,22.715247 C0,23.4237961 0.48046875,24 1.07128125,24 L7.92871875,24 C8.51953125,24 9,23.4237961 9,22.715247 L9,22.3593579 C9,21.431067 8.58642187,20.5830894 7.91990625,20.1463661 Z M8.00001563,22.7152991 C8.00001563,22.8308732 7.94095313,22.8888947 7.92871875,22.8888947 L1.07128125,22.8888947 C1.05909375,22.8888947 0.999984375,22.8308212 0.999984375,22.7152991 L0.999984375,22.35941 C0.999984375,21.8304462 1.2309375,21.3377848 1.58789063,21.1034073 C2.27882813,20.6509026 3.34523438,20.1111053 4.5,20.1111053 C5.65476563,20.1111053 6.72117188,20.6509547 7.41210938,21.1034073 C7.7690625,21.3377848 8.00001563,21.8303941 8.00001563,22.35941 L8.00001563,22.7152991 Z" id="Shape"></path>
            <path d="M18.5,18 C19.8784149,18 21,16.8784254 21,15.5000234 C21,14.1216215 19.8784617,13 18.5,13 C17.1215383,13 16,14.1215746 16,15.4999766 C16,16.8783785 17.1215851,18 18.5,18 Z M18.5,13.9999813 C19.3271614,13.9999813 20.0000094,14.6728229 20.0000094,15.4999766 C20.0000094,16.3271302 19.3271614,16.9999719 18.5,16.9999719 C17.6728386,16.9999719 16.9999906,16.3271302 16.9999906,15.4999766 C16.9999906,14.6728229 17.6728855,13.9999813 18.5,13.9999813 Z" id="Shape"></path>
            <path d="M22.9199063,20.1463542 C22.1215781,19.6233333 20.880375,19 19.5,19 C18.119625,19 16.8784219,19.6233854 16.0800938,20.1463542 C15.4135781,20.5830729 15,21.4310937 15,22.359375 L15,22.7152604 C15,23.4238021 15.4804688,24 16.0712812,24 L22.9287188,24 C23.5195312,24 24,23.4238021 24,22.7152604 L24,22.359375 C23.9999531,21.4310417 23.586375,20.5830729 22.9199063,20.1463542 Z M22.9999688,22.7152604 C22.9999688,22.8308333 22.9409063,22.8888542 22.9286719,22.8888542 L16.0712344,22.8888542 C16.0590469,22.8888542 15.9999375,22.8307813 15.9999375,22.7152604 L15.9999375,22.359375 C15.9999375,21.8304167 16.2308906,21.3377604 16.5878438,21.1033854 C17.2787813,20.6508854 18.3451875,20.1110937 19.4999531,20.1110937 C20.6547188,20.1110937 21.721125,20.6509375 22.4120625,21.1033854 C22.7690156,21.3377604 22.9999688,21.8303646 22.9999688,22.359375 L22.9999688,22.7152604 Z" id="Shape"></path>
            <path d="M15.4160507,19 C15.587493,19 15.7566932,18.9248047 15.8723553,18.78125 C16.0734377,18.5294687 16.0324228,18.1625703 15.7811928,17.9609375 L13.0833414,15.8026406 L13.0833414,12.5833516 C13.0833414,12.2609141 12.8224319,12 12.5,12 C12.1775681,12 11.9166586,12.2608594 11.9166586,12.5832969 L11.9166586,15.8030234 L9.21880721,17.9608828 C8.96757722,18.1625703 8.92656231,18.5294141 9.12764474,18.7811953 C9.24330679,18.92475 9.41245227,18.9999453 9.58394928,18.9999453 C9.711533,18.9999453 9.84031981,18.9583828 9.94794294,18.8723594 L12.5,16.8307109 L15.0520024,18.8723594 C15.1596802,18.9583828 15.2884123,19 15.4160507,19 Z" id="Shape"></path>
        </g>
    </g>
</svg>