
<svg width="24px" height="24px" viewBox="0 0 24 24" version="1.1" xmlns="http://www.w3.org/2000/svg" xmlns:xlink="http://www.w3.org/1999/xlink">
    <defs></defs>
    <g id="Page-1" stroke="none" stroke-width="1" fill="none" fill-rule="evenodd">
        <g id="Group-10" transform="translate(-262.000000, -434.000000)" fill="#00E4FF" fill-rule="nonzero">
            <g id="002-settings" transform="translate(262.000000, 434.000000)">
                <path d="M22.1949375,8.893875 L21.1440937,8.76960937 C21.0297188,8.44603125 20.8977656,8.12779687 20.7497813,7.818375 L21.4050938,6.98723437 C22.0465781,6.17353125 22.0447969,5.07440625 21.4011094,4.430625 L19.5690938,2.59860937 C18.9253125,1.95482812 17.8261875,1.95309375 17.0123906,2.59471875 L16.1812969,3.25007812 C15.8717813,3.102 15.5535,2.97004687 15.2300156,2.85576562 L15.10575,1.80496875 C14.9839688,0.77596875 14.2056094,0 13.2951562,0 L10.7043281,0 C9.79382812,0 9.01542187,0.776015625 8.89373437,1.8050625 L8.76951562,2.85585938 C8.446125,2.97014063 8.12803125,3.102 7.81870312,3.24998437 L6.98760937,2.594625 C6.17390625,1.95304688 5.07478125,1.95464062 4.43090625,2.59851562 L2.5989375,4.43048437 C1.95515625,5.0743125 1.95342188,6.1734375 2.595,6.98709375 L3.25026562,7.81823437 C3.1021875,8.12770313 2.97023437,8.44598437 2.85590625,8.76946875 L1.8050625,8.89373438 C0.776015625,9.01542188 0,9.79382813 0,10.7043281 L0,13.2951562 C0,14.2056562 0.77596875,14.9840156 1.80496875,15.10575 L2.85576563,15.2300156 C2.97004688,15.5535469 3.102,15.8718281 3.25003125,16.1812969 L2.59467187,17.0123906 C1.95304688,17.8260937 1.9546875,18.9252656 2.5985625,19.5690938 L4.43053125,21.4010625 C5.07440625,22.0448906 6.17353125,22.0464844 6.98714063,21.405 L7.81823437,20.7497344 C8.12789062,20.8978594 8.44607812,21.0298125 8.76951563,21.1440937 L8.89373438,22.1948906 C9.01542188,23.2239844 9.79378125,24 10.7043281,24 L13.2951562,24 C14.2056094,24 14.9839688,23.2240313 15.10575,22.1950312 L15.2300156,21.1442344 C15.5537812,21.0299062 15.8722031,20.8978594 16.1817656,20.7497344 L17.0128594,21.405 C17.8264688,22.0465312 18.9255937,22.0448437 19.5694687,21.4010625 L21.4013906,19.5690938 C22.0452656,18.9253125 22.0469531,17.8261406 21.4053281,17.0124375 L20.7499688,16.1812969 C20.898,15.8718281 21.0299531,15.5535469 21.1442344,15.2300156 L22.1949844,15.10575 C23.2239844,14.9840156 24,14.2056562 24,13.2951562 L24,10.7043281 C24,9.79382813 23.2239844,9.01546875 22.1949375,8.893875 Z M23.0625,13.2951562 C23.0625,13.7306719 22.6422187,14.1088125 22.0849688,14.1747187 L20.7394688,14.3339063 C20.5567969,14.3555156 20.4036094,14.4819844 20.347875,14.6572969 C20.1986719,15.1264219 20.0082656,15.5857969 19.7819531,16.0227188 C19.69725,16.186125 19.7160469,16.3840313 19.8300469,16.5285469 L20.6692969,17.5928906 C21.0168281,18.0336563 21.0465937,18.5982656 20.738625,18.9061875 L18.9066563,20.7381563 C18.5986875,21.0460781 18.034125,21.0163125 17.5934063,20.6688281 L16.5290625,19.8296719 C16.3845469,19.7157656 16.1867344,19.6967813 16.0231875,19.7815781 C15.5861719,20.0079844 15.1267031,20.1984375 14.6573906,20.3477344 C14.4820781,20.4034688 14.3556094,20.5566562 14.334,20.7393281 L14.1748125,22.0848281 C14.1088125,22.6421719 13.7306719,23.0624531 13.2952031,23.0624531 L10.704375,23.0624531 C10.2688125,23.0624531 9.89067188,22.6421719 9.82476563,22.0848281 L9.66567188,20.7392344 C9.6440625,20.5565156 9.51759375,20.4033281 9.34228125,20.3475938 C8.87348438,20.1984844 8.4140625,20.0080312 7.97685938,19.7815781 C7.90884375,19.7463281 7.834875,19.7290313 7.76132813,19.7290313 C7.65801562,19.7290313 7.55545313,19.7631094 7.47103125,19.8297188 L6.4066875,20.668875 C5.96592188,21.0163594 5.40135938,21.0462188 5.0934375,20.7382031 L3.26142188,18.9062344 C2.95340625,18.5982188 2.98326563,18.0336562 3.33079688,17.5929375 L4.17004688,16.5285937 C4.284,16.3840781 4.30284375,16.1861719 4.21814063,16.0227656 C3.99182813,15.5858438 3.80146875,15.1264688 3.65221875,14.6573438 C3.59648438,14.4820313 3.44329688,14.3555625 3.260625,14.3339531 L1.91507813,14.1747656 C1.35778125,14.1088125 0.9375,13.7306719 0.9375,13.2951562 L0.9375,10.7043281 C0.9375,10.2688125 1.35782812,9.89067187 1.91517187,9.8248125 L3.26076562,9.66571875 C3.44348438,9.64410937 3.59667188,9.51764062 3.65240625,9.34232812 C3.80160937,8.87325 3.9920625,8.413875 4.21842188,7.97695312 C4.303125,7.8135 4.28432813,7.61559375 4.17032813,7.47107812 L3.33117188,6.4066875 C2.98364063,5.96596875 2.953875,5.40140625 3.26184375,5.0934375 L5.09376563,3.26142187 C5.4016875,2.95340625 5.96634375,2.98326562 6.40701563,3.33079687 L7.47135938,4.17009375 C7.61596875,4.28409375 7.81392188,4.3029375 7.97723438,4.2181875 C8.41396875,3.99192187 8.87325,3.8015625 9.34223438,3.65235937 C9.51754688,3.596625 9.64401562,3.4434375 9.665625,3.26071875 L9.82471875,1.91517187 C9.89067188,1.35782812 10.2687656,0.9375 10.7043281,0.9375 L13.2951562,0.9375 C13.730625,0.9375 14.1087656,1.35778125 14.1747188,1.91507813 L14.3339063,3.260625 C14.3555156,3.44334375 14.4820313,3.59653125 14.6573438,3.65226563 C15.1263281,3.801375 15.58575,3.99182813 16.0227188,4.2181875 C16.1860312,4.30289062 16.3840312,4.28409375 16.5285937,4.17009375 L17.5929375,3.33079687 C18.03375,2.98335938 18.5983125,2.95340625 18.9062344,3.26142187 L20.73825,5.09339062 C21.0461719,5.40135937 21.0163125,5.96592187 20.6689219,6.40664062 L19.8297187,7.47103125 C19.7157656,7.61559375 19.6969219,7.81345312 19.781625,7.97690625 C20.0079375,8.41364062 20.1983437,8.87301562 20.3476406,9.34223438 C20.403375,9.51754688 20.5565625,9.6440625 20.7392812,9.665625 L22.084875,9.82471875 L22.0848281,9.82471875 C22.6421719,9.89067188 23.0625,10.2687656 23.0625,10.7043281 L23.0625,13.2951562 Z" id="Shape"></path>
                <path d="M12,7.2958125 C9.406125,7.2958125 7.2958125,9.406125 7.2958125,12 C7.2958125,14.593875 9.40607813,16.7041875 12,16.7041875 C14.5939219,16.7041875 16.7041875,14.5939219 16.7041875,12 C16.7041875,9.406125 14.593875,7.2958125 12,7.2958125 Z M12,15.7666875 C9.9230625,15.7666875 8.2333125,14.0769844 8.2333125,12 C8.2333125,9.92301563 9.92301563,8.2333125 12,8.2333125 C14.0769844,8.2333125 15.7666875,9.9230625 15.7666875,12 C15.7666875,14.0769375 14.0769375,15.7666875 12,15.7666875 Z" id="Shape"></path>
            </g>
        </g>
    </g>
</svg>