<?xml version="1.0" encoding="UTF-8"?>
<svg width="24px" height="24px" viewBox="0 0 24 24" version="1.1" xmlns="http://www.w3.org/2000/svg" xmlns:xlink="http://www.w3.org/1999/xlink">
    <!-- Generator: Sketch 48.2 (47327) - http://www.bohemiancoding.com/sketch -->
    <title>004-internet</title>
    <desc>Created with Sketch.</desc>
    <defs></defs>
    <g id="sonder_onepager" stroke="none" stroke-width="1" fill="none" fill-rule="evenodd" transform="translate(-468.000000, -1556.000000)">
        <g id="004-internet" transform="translate(468.000000, 1556.000000)" fill="#00E4FF" fill-rule="nonzero">
            <path d="M20.9743448,19.953931 C22.8546207,17.8348966 24,15.0492414 24,12 C24,8.82744828 22.7602759,5.94082759 20.7426207,3.79282759 C20.7426207,3.79282759 20.7426207,3.79241379 20.7426207,3.79241379 C20.7409655,3.78993103 20.7384828,3.78910345 20.7372414,3.78703448 C18.6355862,1.55296552 15.6910345,0.122896552 12.4158621,0.0107586207 L12.4154483,0.0103448276 L12.1816552,0.00413793103 C12.1212414,0.00206896552 12.0608276,0 12,0 C11.9391724,0 11.8787586,0.00206896552 11.8183448,0.00413793103 L11.5853793,0.0103448276 L11.5849655,0.0107586207 C8.3097931,0.122896552 5.36524138,1.55296552 3.26358621,3.78703448 C3.26193103,3.78910345 3.25944828,3.78993103 3.2582069,3.79241379 C3.2582069,3.79241379 3.2582069,3.79282759 3.2577931,3.79324138 C1.23972414,5.94082759 0,8.82744828 0,12 C0,15.0492414 1.14537931,17.8348966 3.02565517,19.953931 C3.02813793,19.9576552 3.02813793,19.9617931 3.03103448,19.9655172 C3.03848276,19.9758621 3.04924138,19.9808276 3.05710345,19.9903448 C5.16993103,22.3522759 8.20137931,23.8737931 11.5845517,23.9896552 L11.5849655,23.990069 L11.817931,23.9962759 C11.8787586,23.997931 11.9391724,24 12,24 C12.0608276,24 12.1212414,23.997931 12.1816552,23.9958621 L12.4146207,23.9896552 L12.4150345,23.9892414 C15.801931,23.8729655 18.8366897,22.3485517 20.9495172,19.9816552 C20.9548966,19.9746207 20.9635862,19.9725517 20.9685517,19.9651034 C20.9718621,19.9617931 20.9718621,19.9576552 20.9743448,19.953931 Z M0.837931034,12.4137931 L5.80468966,12.4137931 C5.85144828,14.1678621 6.19406897,15.8722759 6.804,17.4691034 C5.62717241,17.8948966 4.50206897,18.465931 3.44772414,19.1784828 C1.89724138,17.3342069 0.932275862,14.9834483 0.837931034,12.4137931 Z M3.67365517,4.56124138 C4.70317241,5.23075862 5.79931034,5.76703448 6.94262069,6.16758621 C6.24248276,7.86703448 5.85517241,9.69931034 5.80468966,11.5862069 L0.837931034,11.5862069 C0.936827586,8.89365517 1.99117241,6.44193103 3.67365517,4.56124138 Z M23.162069,11.5862069 L18.1953103,11.5862069 C18.1448276,9.69931034 17.7575172,7.86703448 17.0573793,6.16758621 C18.2006897,5.76703448 19.2968276,5.23075862 20.3263448,4.56124138 C22.0088276,6.44193103 23.0631724,8.89365517 23.162069,11.5862069 Z M11.5862069,6.19158621 C10.389931,6.15765517 9.21558621,5.97931034 8.08096552,5.66068966 C8.91972414,3.94013793 10.104,2.38717241 11.5862069,1.09406897 L11.5862069,6.19158621 Z M11.5862069,7.01917241 L11.5862069,11.5862069 L6.63227586,11.5862069 C6.68317241,9.78703448 7.06055172,8.04206897 7.73544828,6.42413793 C8.97931034,6.78455172 10.2707586,6.984 11.5862069,7.01917241 Z M12.4137931,7.01917241 C13.7292414,6.984 15.0206897,6.78496552 16.2649655,6.42413793 C16.9398621,8.04206897 17.3172414,9.78703448 17.3681379,11.5862069 L12.4137931,11.5862069 L12.4137931,7.01917241 Z M12.4137931,6.19158621 L12.4137931,1.09406897 C13.896,2.38717241 15.0802759,3.94013793 15.9190345,5.66068966 C14.7844138,5.97931034 13.610069,6.15765517 12.4137931,6.19158621 Z M16.7209655,5.40910345 C15.926069,3.74358621 14.8228966,2.2262069 13.4569655,0.925655172 C15.8801379,1.24262069 18.0604138,2.33834483 19.7395862,3.9537931 C18.7862069,4.55875862 17.7748966,5.04537931 16.7209655,5.40910345 Z M7.27903448,5.40910345 C6.22510345,5.04537931 5.2137931,4.55875862 4.26082759,3.9537931 C5.93958621,2.33834483 8.12027586,1.24262069 10.5434483,0.925655172 C9.17710345,2.2262069 8.07393103,3.74358621 7.27903448,5.40910345 Z M6.63227586,12.4137931 L11.5862069,12.4137931 L11.5862069,16.5674483 C10.2177931,16.6038621 8.87710345,16.8173793 7.58855172,17.2051034 C7.00634483,15.6926897 6.67903448,14.0768276 6.63227586,12.4137931 Z M11.5862069,17.3950345 L11.5862069,22.905931 C9.99972414,21.5217931 8.75586207,19.8401379 7.91006897,17.9747586 C9.09641379,17.6251034 10.3286897,17.4306207 11.5862069,17.3950345 Z M12.4137931,22.905931 L12.4137931,17.3950345 C13.6713103,17.4302069 14.9035862,17.6251034 16.089931,17.9743448 C15.2441379,19.8401379 14.0002759,21.5217931 12.4137931,22.905931 Z M12.4137931,16.5674483 L12.4137931,12.4137931 L17.3677241,12.4137931 C17.3209655,14.0768276 16.9936552,15.6926897 16.4110345,17.2055172 C15.1228966,16.8173793 13.7822069,16.6038621 12.4137931,16.5674483 Z M18.1953103,12.4137931 L23.162069,12.4137931 C23.0677241,14.9834483 22.1031724,17.3342069 20.5522759,19.1784828 C19.497931,18.465931 18.3728276,17.8948966 17.196,17.4691034 C17.8063448,15.8722759 18.1485517,14.1678621 18.1953103,12.4137931 Z M4.01006897,19.7983448 C4.98910345,19.1478621 6.03144828,18.6248276 7.12055172,18.2337931 C7.92537931,20.037931 9.08068966,21.681931 10.5430345,23.0743448 C7.9977931,22.7412414 5.71986207,21.5495172 4.01006897,19.7983448 Z M13.4569655,23.0743448 C14.9193103,21.6823448 16.0746207,20.0383448 16.8794483,18.2337931 C17.9685517,18.6248276 19.0104828,19.1478621 19.989931,19.7983448 C18.2801379,21.5495172 16.0022069,22.7412414 13.4569655,23.0743448 Z" id="Shape"></path>
        </g>
    </g>
</svg>