
<svg width="22px" height="23px" viewBox="0 0 22 23" version="1.1" xmlns="http://www.w3.org/2000/svg" xmlns:xlink="http://www.w3.org/1999/xlink">
    <defs></defs>
    <g id="Page-1" stroke="none" stroke-width="1" fill="none" fill-rule="evenodd">
        <g id="Group-10" transform="translate(-509.000000, -434.000000)" fill="#00E4FF" fill-rule="nonzero">
            <g id="bar-chart" transform="translate(509.000000, 434.000000)">
                <path d="M21.5462027,22.0693753 L20.5508892,22.0693753 L20.5508892,7.25085262 C20.5508892,6.56112014 20.0036098,6 19.3309915,6 L17.1062958,6 C16.4336322,6 15.886398,6.56116667 15.886398,7.25085262 L15.886398,22.0693753 L13.3591104,22.0693753 L13.3591104,13.9647978 C13.3591104,13.2750653 12.8118763,12.7139451 12.1392126,12.7139451 L9.91451697,12.7139451 C9.24185331,12.7139451 8.6946192,13.2751118 8.6946192,13.9647978 L8.6946192,22.0693753 L6.16733155,22.0693753 L6.16733155,17.872072 C6.16733155,17.1823395 5.62005206,16.6212193 4.94743378,16.6212193 L2.72269275,16.6212193 C2.05002908,16.6212193 1.50279498,17.182386 1.50279498,17.872072 L1.50279498,22.0693753 L0.453797252,22.0693753 C0.20316503,22.0693753 0,22.2776957 0,22.5346877 C0,22.7916797 0.20316503,23 0.453797252,23 L21.5462027,23 C21.796835,23 22,22.7916797 22,22.5346877 C22,22.2776957 21.796835,22.0693753 21.5462027,22.0693753 Z M5.25964629,22.0693753 L2.4103441,22.0693753 L2.4103441,17.872072 C2.4103441,17.6954859 2.55043131,17.551844 2.72264737,17.551844 L4.94734302,17.551844 C5.11955907,17.551844 5.25964629,17.6954859 5.25964629,17.872072 L5.25964629,22.0693753 Z M12.4514705,22.0693753 L9.60216833,22.0693753 L9.60216833,13.9647978 C9.60216833,13.7882117 9.74225554,13.6445698 9.91447159,13.6445698 L12.1391672,13.6445698 C12.3113379,13.6445698 12.4514705,13.7882117 12.4514705,13.9647978 L12.4514705,22.0693753 Z M19.6432947,22.0693753 L16.7939925,22.0693753 L16.7939925,7.25085262 C16.7939925,7.07426659 16.9340798,6.93062467 17.1062958,6.93062467 L19.3309915,6.93062467 C19.5032075,6.93062467 19.6432947,7.07426659 19.6432947,7.25085262 L19.6432947,22.0693753 Z" id="Shape"></path>
                <path d="M20.9988886,0.491017104 C21.0053715,0.363593589 20.9609174,0.234022226 20.8644148,0.136715299 C20.7679122,0.0394083716 20.6394119,-0.00546300886 20.5130417,0.0011206172 C20.5055864,0.000793770518 20.4982237,0 20.4906294,0 L17.6890912,0 C17.4333409,0 17.2260271,0.2090418 17.2260271,0.466923834 C17.2260271,0.724805867 17.4333409,0.933847668 17.6890912,0.933847668 L19.41896,0.933847668 L14.8412466,5.54976331 L13.1149434,3.80907125 C13.0281189,3.72152303 12.9103154,3.67230926 12.7875108,3.67230926 C12.6647061,3.67230926 12.5469026,3.72152303 12.4600781,3.80907125 L4.13561992,12.202961 C3.95479336,12.3852948 3.95479336,12.6809509 4.13561992,12.8633314 C4.22605635,12.9544282 4.34455447,13 4.46305259,13 C4.58155071,13 4.70009513,12.9544282 4.79048526,12.863238 L12.7875108,4.79951009 L14.513814,6.54020214 C14.6946405,6.7225359 14.9878527,6.7225359 15.1687256,6.54020214 L20.0738717,1.59421805 L20.0738717,3.17288753 C20.0738717,3.43076956 20.2811855,3.63981136 20.5369358,3.63981136 C20.7926862,3.63981136 21,3.43076956 21,3.17288753 L21,0.513616217 C21,0.506005359 20.9992128,0.49858127 20.9988886,0.491017104 Z" id="Shape"></path>
                <circle id="Oval" cx="3.5" cy="13.5" r="1"></circle>
            </g>
        </g>
    </g>
</svg>
