
<svg width="24px" height="24px" viewBox="0 0 24 24" version="1.1" xmlns="http://www.w3.org/2000/svg" xmlns:xlink="http://www.w3.org/1999/xlink">
    <defs></defs>
    <g id="Page-1" stroke="none" stroke-width="1" fill="none" fill-rule="evenodd">
        <g id="Group-10" transform="translate(-773.000000, -432.000000)" fill="#00E4FF" fill-rule="nonzero">
            <g id="Group-7" transform="translate(773.000000, 207.000000)">
                <g id="laptop" transform="translate(0.000000, 225.000000)">
                    <path d="M23.5278227,20.1466875 L14.0378053,20.1466875 C13.7770169,20.1466875 13.5655336,20.3565938 13.5655336,20.6154375 C13.5655336,21.046125 13.2125105,21.3965156 12.7785872,21.3965156 L11.2091809,21.3965156 C10.7752577,21.3965156 10.4222345,21.046125 10.4222345,20.6154375 C10.4222345,20.3565938 10.2107513,20.1466875 9.9499628,20.1466875 L2.576998,20.1466875 L2.576998,8.10164062 C2.576998,7.56309375 3.01847763,7.12490625 3.56107064,7.12490625 L9.4510077,7.12490625 L9.45530537,7.16596875 L8.47401914,8.0851875 C8.47076046,8.08828125 8.46745456,8.09146875 8.46424311,8.09460938 C7.6065504,8.946 7.1341842,10.0779375 7.1341842,11.2818281 L7.1341842,13.3749375 C7.1341842,13.5601406 7.24408184,13.728 7.41461916,13.8032813 C7.4762034,13.8304688 7.54156581,13.8436875 7.60640872,13.8436875 C7.72112352,13.8436875 7.83437429,13.8022031 7.92287801,13.7229844 L9.98949194,11.8722656 C10.0489982,11.9732813 10.1452944,12.0510938 10.2629845,12.0855938 C10.817951,12.2482969 11.392753,12.3317813 11.9714275,12.33375 C11.9783699,12.33375 11.9853596,12.3337969 11.9923492,12.3337969 C12.5779189,12.3337969 13.159616,12.2503125 13.7215249,12.0855938 C13.8425682,12.0500625 13.9407535,11.9683594 13.9997402,11.8627969 L16.0772164,13.7232188 C16.1657674,13.8024375 16.2789709,13.8439219 16.3936857,13.8439219 C16.4585286,13.8439219 16.523891,13.8307031 16.5854753,13.8035156 C16.7559654,13.7282813 16.8659102,13.560375 16.8659102,13.3751719 L16.8659102,11.2820625 C16.8659102,10.078125 16.393544,8.94623438 15.5358513,8.09484375 L14.6282867,7.19404688 L14.637071,7.1248125 L20.4390238,7.1248125 C20.9816168,7.1248125 21.4230964,7.563 21.4230964,8.10154688 L21.4230964,16.6957969 C21.4230964,16.9546406 21.6345797,17.1645469 21.8953682,17.1645469 C22.1561566,17.1645469 22.3676399,16.9546406 22.3676399,16.6957969 L22.3676399,8.10164062 C22.3676399,7.04610938 21.5024853,6.18740625 20.4390238,6.18740625 L14.7462602,6.18740625 C14.9117442,4.05464062 14.189499,1.9471875 12.7337686,0.353484375 L12.6507432,0.2626875 C12.498105,0.09553125 12.2807183,0 12.0536028,0 C12.0516193,0 12.0495885,0 12.047605,0 C11.818317,0.0016875 11.5999386,0.1006875 11.448481,0.271546875 L11.2920174,0.447984375 C9.89692668,2.02148438 9.19782282,4.10226563 9.35636444,6.18740625 L3.56111786,6.18740625 C2.49765635,6.18740625 1.63250174,7.04610937 1.63250174,8.10164062 L1.63250174,20.1466875 L0.472271745,20.1466875 C0.211483287,20.1466875 0,20.3565938 0,20.6154375 L0,21.3462187 C-3.14596179e-17,22.8095156 1.19947578,24 2.67367203,24 L21.3262807,24 C22.8005714,24 24,22.8095625 24,21.3462656 L24,20.6154375 C24.0000944,20.3565469 23.7886111,20.1466875 23.5278227,20.1466875 Z M14.2530668,10.146375 L14.4786238,8.3715 L14.8679174,8.75784375 C15.5472331,9.43214062 15.9213667,10.328625 15.9213667,11.2821562 L15.9213667,12.321 L14.1754253,10.7574844 L14.2530668,10.146375 Z M12.0010862,1.06734375 L12.0551613,1.00640625 C13.397027,2.48882812 14.0222676,4.47070312 13.7708773,6.44896875 L13.6623021,7.30345312 C13.6622548,7.30382812 13.6621604,7.30415625 13.6621132,7.30448437 L13.2074572,10.882875 C13.2074572,10.8829219 13.2074572,10.8829219 13.2074572,10.8829687 L13.1590965,11.2636406 C12.7766981,11.3517656 12.3856571,11.3962969 11.9923964,11.3962969 C11.986493,11.3962969 11.9805896,11.3962969 11.9746862,11.39625 C11.5898792,11.3949375 11.207103,11.3509687 10.8328748,11.2653281 L10.4607719,7.700625 L10.4189286,7.29965625 C10.4189286,7.29960937 10.4189286,7.2995625 10.4188814,7.29946875 L10.3151233,6.305625 C10.1170998,4.40845312 10.7316198,2.49914062 12.0010862,1.06734375 Z M9.82958073,10.75275 L8.07872769,12.3207187 L8.07872769,11.281875 C8.07872769,10.3305469 8.45116119,9.43598437 9.12745433,8.76225 L9.57781266,8.34032812 L9.82958073,10.75275 Z M21.3263752,23.0625 L2.67367203,23.0625 C1.7202026,23.0625 0.944496262,22.2925781 0.944496262,21.3462187 L0.944496262,21.0841875 L9.54305346,21.0841875 C9.74910562,21.80475 10.4179841,22.3340156 11.2090865,22.3340156 L12.7784927,22.3340156 C13.5695951,22.3340156 14.2384736,21.80475 14.4445258,21.0841875 L23.0555037,21.0841875 L23.0554093,21.3462656 L23.0555037,21.3462656 C23.0555509,22.2925781 22.2798446,23.0625 21.3263752,23.0625 Z" id="Shape"></path>
                    <path d="M20.5202895,8 L18.1050897,8 C17.8401671,8 17.6253312,8.21073753 17.6253312,8.47060635 C17.6253312,8.73047518 17.8401671,8.94121271 18.1050897,8.94121271 L20.0405311,8.94121271 L20.0405311,18.0587873 L4.95951685,18.0587873 L4.95951685,8.94121271 L6.48121463,8.94121271 C6.74613724,8.94121271 6.96097306,8.73047518 6.96097306,8.47060635 C6.96097306,8.21073753 6.74613724,8 6.48121463,8 L4.47975843,8 C4.21483582,8 4,8.21073753 4,8.47060635 L4,18.5293936 C4,18.7892625 4.21483582,19 4.47975843,19 L20.5202416,19 C20.7851642,19 21,18.7892625 21,18.5293936 L21,8.47060635 C21.000048,8.21073753 20.7852121,8 20.5202895,8 Z" id="Shape"></path>
                    <circle id="Oval" cx="12.5" cy="4.5" r="1"></circle>
                    <circle id="Oval" cx="21.5" cy="18.5" r="1"></circle>
                    <path d="M10.5,13 C10.2239,13 10,13.2212997 10,13.4941932 L10,15.5058068 C10,15.7787003 10.2239,16 10.5,16 C10.7761,16 11,15.7787497 11,15.5058068 L11,13.4941932 C11,13.2212997 10.77615,13 10.5,13 Z" id="Shape"></path>
                    <path d="M13.5,13 C13.2239,13 13,13.2238273 13,13.4998376 L13,16.5001624 C13,16.7761727 13.2239,17 13.5,17 C13.7761,17 14,16.7762227 14,16.5001624 L14,13.4998376 C14,13.2238273 13.7761,13 13.5,13 Z" id="Shape"></path>
                </g>
            </g>
        </g>
    </g>
</svg>
