<?xml version="1.0" encoding="UTF-8"?>
<svg width="24px" height="24px" viewBox="0 0 24 24" version="1.1" xmlns="http://www.w3.org/2000/svg" xmlns:xlink="http://www.w3.org/1999/xlink">
    <!-- Generator: Sketch 48.2 (47327) - http://www.bohemiancoding.com/sketch -->
    <title>001-smartphone</title>
    <desc>Created with Sketch.</desc>
    <defs></defs>
    <g id="sonder_onepager" stroke="none" stroke-width="1" fill="none" fill-rule="evenodd" transform="translate(-94.000000, -1826.000000)">
        <g id="001-smartphone" transform="translate(94.000000, 1826.000000)" fill="#00E4FF" fill-rule="nonzero">
            <path d="M5.78947368,3.11111111 L19.2105263,3.11111111 L19.2105263,14 L20,14 L20,1.94444444 C20,0.872277778 19.1146053,0 18.0263158,0 L6.97368421,0 C5.88539474,0 5,0.872277778 5,1.94444444 L5,3.88888889 L5.78947368,3.88888889 L5.78947368,3.11111111 Z M5.78947368,1.94444444 C5.78947368,1.30122222 6.32078947,0.777777778 6.97368421,0.777777778 L18.0263158,0.777777778 C18.6792105,0.777777778 19.2105263,1.30122222 19.2105263,1.94444444 L19.2105263,2.33333333 L5.78947368,2.33333333 L5.78947368,1.94444444 Z" id="Shape"></path>
            <rect id="Rectangle-path" x="5" y="10" width="1" height="9"></rect>
            <path d="M5,22 C5,23.1028 5.88539474,24 6.97368421,24 L18.0263158,24 C19.1146053,24 20,23.1028 20,22 L20,20 L5,20 L5,22 Z M5.78947368,20.8 L19.2105263,20.8 L19.2105263,22 C19.2105263,22.6616 18.6792105,23.2 18.0263158,23.2 L6.97368421,23.2 C6.32078947,23.2 5.78947368,22.6616 5.78947368,22 L5.78947368,20.8 Z" id="Shape"></path>
            <rect id="Rectangle-path" x="10" y="22" width="4" height="1"></rect>
            <path d="M7,12 C7,14.7569231 9.24307692,17 12,17 C14.7569231,17 17,14.7569231 17,12 C17,9.24307692 14.7569231,7 12,7 C9.24307692,7 7,9.24307692 7,12 Z M16.2307692,12 C16.2307692,14.3326923 14.3326923,16.2307692 12,16.2307692 C9.66730769,16.2307692 7.76923077,14.3326923 7.76923077,12 C7.76923077,9.66730769 9.66730769,7.76923077 12,7.76923077 C14.3326923,7.76923077 16.2307692,9.66730769 16.2307692,12 Z" id="Shape"></path>
            <path d="M11.6,8 L11.6,8.77777778 C10.7176,8.77777778 10,9.47544444 10,10.3333333 C10,11.1912222 10.7176,11.8888889 11.6,11.8888889 L12.4,11.8888889 C12.8412,11.8888889 13.2,12.2377222 13.2,12.6666667 C13.2,13.0956111 12.8412,13.4444444 12.4,13.4444444 L11.6,13.4444444 C11.1588,13.4444444 10.8,13.0956111 10.8,12.6666667 L10,12.6666667 C10,13.5245556 10.7176,14.2222222 11.6,14.2222222 L11.6,15 L12.4,15 L12.4,14.2222222 C13.2824,14.2222222 14,13.5245556 14,12.6666667 C14,11.8087778 13.2824,11.1111111 12.4,11.1111111 L11.6,11.1111111 C11.1588,11.1111111 10.8,10.7622778 10.8,10.3333333 C10.8,9.90438889 11.1588,9.55555556 11.6,9.55555556 L12.4,9.55555556 C12.8412,9.55555556 13.2,9.90438889 13.2,10.3333333 L14,10.3333333 C14,9.47544444 13.2824,8.77777778 12.4,8.77777778 L12.4,8 L11.6,8 Z" id="Shape"></path>
            <polygon id="Shape" points="23.1818182 18.2222222 23.1818182 12 22.3636364 12 22.3636364 18.2222222 21.5454545 18.2222222 21.5454545 13.5555556 20.7272727 13.5555556 20.7272727 18.2222222 19.9090909 18.2222222 19.9090909 15.1111111 19.0909091 15.1111111 19.0909091 18.2222222 18.2727273 18.2222222 18.2727273 14.3333333 17.4545455 14.3333333 17.4545455 18.2222222 16.6363636 18.2222222 16.6363636 15.8888889 15.8181818 15.8888889 15.8181818 18.2222222 15 18.2222222 15 19 24 19 24 18.2222222"></polygon>
            <path d="M4.61538462,8.4 C4.61538462,9.0616 5.13307692,9.6 5.76923077,9.6 C6.40538462,9.6 6.92307692,9.0616 6.92307692,8.4 C6.92307692,8.2152 6.87961538,8.0424 6.80730769,7.886 L8.35153846,6.28 C8.50230769,6.3548 8.66846154,6.4 8.84615385,6.4 C9.48230769,6.4 10,5.8616 10,5.2 C10,4.5384 9.48230769,4 8.84615385,4 C8.21,4 7.69230769,4.5384 7.69230769,5.2 C7.69230769,5.3848 7.73576923,5.5576 7.80807692,5.714 L6.26384615,7.32 C6.11307692,7.2452 5.94692308,7.2 5.76923077,7.2 C5.56038462,7.2 5.36692308,7.2624 5.19769231,7.3636 L4.15076923,6.4304 C4.20076923,6.2964 4.23076923,6.152 4.23076923,6 C4.23076923,5.3384 3.71307692,4.8 3.07692308,4.8 C2.44076923,4.8 1.92307692,5.3384 1.92307692,6 C1.92307692,6.352 2.07230769,6.666 2.30538462,6.886 L1.21538462,9.6064 C1.19461538,9.6052 1.175,9.6 1.15384615,9.6 C0.517692308,9.6 0,10.1384 0,10.8 C0,11.4616 0.517692308,12 1.15384615,12 C1.79,12 2.30769231,11.4616 2.30769231,10.8 C2.30769231,10.448 2.15846154,10.134 1.92538462,9.914 L3.01538462,7.1932 C3.03615385,7.1948 3.05576923,7.2 3.07692308,7.2 C3.28576923,7.2 3.47923077,7.1376 3.64846154,7.0364 L4.69538462,7.9696 C4.64538462,8.1036 4.61538462,8.248 4.61538462,8.4 Z M8.84615385,4.8 C9.05807692,4.8 9.23076923,4.9796 9.23076923,5.2 C9.23076923,5.4204 9.05807692,5.6 8.84615385,5.6 C8.63423077,5.6 8.46153846,5.4204 8.46153846,5.2 C8.46153846,4.9796 8.63423077,4.8 8.84615385,4.8 Z M5.76923077,8 C5.98115385,8 6.15384615,8.1796 6.15384615,8.4 C6.15384615,8.6204 5.98115385,8.8 5.76923077,8.8 C5.55730769,8.8 5.38461538,8.6204 5.38461538,8.4 C5.38461538,8.1796 5.55730769,8 5.76923077,8 Z M1.15384615,11.2 C0.941923077,11.2 0.769230769,11.0204 0.769230769,10.8 C0.769230769,10.5796 0.941923077,10.4 1.15384615,10.4 C1.36576923,10.4 1.53846154,10.5796 1.53846154,10.8 C1.53846154,11.0204 1.36576923,11.2 1.15384615,11.2 Z M3.07692308,6.4 C2.865,6.4 2.69230769,6.2204 2.69230769,6 C2.69230769,5.7796 2.865,5.6 3.07692308,5.6 C3.28884615,5.6 3.46153846,5.7796 3.46153846,6 C3.46153846,6.2204 3.28884615,6.4 3.07692308,6.4 Z" id="Shape"></path>
        </g>
    </g>
</svg>