
<svg width="24px" height="21px" viewBox="0 0 24 21" version="1.1" xmlns="http://www.w3.org/2000/svg" xmlns:xlink="http://www.w3.org/1999/xlink">
    <defs></defs>
    <g id="Page-1" stroke="none" stroke-width="1" fill="none" fill-rule="evenodd">
        <g id="Group-10" transform="translate(-1015.000000, -434.000000)" fill="#00E4FF" fill-rule="nonzero">
            <g id="like" transform="translate(1015.000000, 434.000000)">
                <circle id="Oval" cx="5.57142857" cy="13.2857143" r="1"></circle>
                <path d="M24,9.39869743 L24,9.3495327 C24,8.25068212 23.1169687,7.35665292 22.0315313,7.35665292 L16.4132344,7.35665292 C17.1357188,6.0879088 17.5258125,4.66573846 17.548875,3.19549489 C17.5527656,2.94891197 17.5508437,2.69435639 17.5487812,2.42485207 C17.5474687,2.25073491 17.5460625,2.06660448 17.5460625,1.86766768 C17.5460625,0.839432067 16.7217656,0.00263516496 15.7075781,7.25248654e-05 C15.5184375,-0.00182572705 14.88825,0.0297327111 14.3924062,0.554029891 C14.1667031,0.792687614 14.0107969,1.09356054 13.9415625,1.42399875 C13.8075937,2.06309271 13.6404375,2.60874522 13.4305312,3.09213508 C12.6612187,4.86377359 11.5648594,6.34379316 10.1719687,7.49104916 C9.8011875,7.79643044 9.40734375,8.07803611 8.99610937,8.33387301 C8.84179687,7.77104132 8.3315625,7.35660547 7.72715625,7.35660547 L0.46875,7.35660547 C0.209859375,7.35660547 0,7.56911477 0,7.83116845 L0,20.0968656 C0,20.3589193 0.209859375,20.5714286 0.46875,20.5714286 L7.72715625,20.5714286 C8.415,20.5714286 8.98096875,20.0347453 9.03890625,19.3533678 C9.93914063,20.1407152 11.0782031,20.5714286 12.2760937,20.5714286 L22.0314844,20.5714286 C23.1169219,20.5714286 24,19.6773994 24,18.5785488 C24,17.9709658 23.7300938,17.4260726 23.3052188,17.060232 C23.7300938,16.6943914 24,16.1494982 24,15.5418677 L24,15.4823575 C24,14.8747746 23.7300938,14.3298813 23.3052188,13.9640407 C23.7300469,13.5982001 24,13.0532595 24,12.445724 L24,12.4353785 C24,11.8277955 23.7300938,11.2829023 23.3052188,10.9170617 C23.7300938,10.5512685 24,10.0063279 24,9.39869743 Z M8.10665625,9.11656973 C8.10665625,9.11737649 8.10665625,9.11818325 8.10665625,9.11899001 L8.10665625,19.2381913 C8.10665625,19.4499888 7.93645312,19.6223501 7.72715625,19.6223501 L6.01907812,19.6223501 L6.01907812,15.4876252 C6.01907812,15.2255715 5.80921875,15.0130622 5.55032812,15.0130622 C5.2914375,15.0130622 5.08157812,15.2255715 5.08157812,15.4876252 L5.08157812,19.6223501 L0.9375,19.6223501 L0.9375,8.30577888 L7.72715625,8.30577888 C7.93640625,8.30577888 8.10665625,8.47814016 8.10665625,8.68998507 L8.10665625,9.11656973 Z M20.7331875,11.3916247 L22.0314844,11.3916247 C22.5999844,11.3916247 23.0625,11.8598285 23.0625,12.4353785 L23.0625,12.445724 C23.0625,13.0212739 22.5999844,13.4894778 22.0314844,13.4894778 L20.7331875,13.4894778 C20.4742969,13.4894778 20.2644375,13.7019871 20.2644375,13.9640407 C20.2644375,14.2260944 20.4742969,14.4386037 20.7331875,14.4386037 L22.0314844,14.4386037 C22.5999375,14.4386037 23.0624531,14.9068076 23.0624531,15.4823575 L23.0624531,15.5418677 C23.0624531,16.1174177 22.5999375,16.585669 22.0314375,16.585669 L20.7331406,16.585669 C20.47425,16.585669 20.2643906,16.7981783 20.2643906,17.060232 C20.2643906,17.3222857 20.47425,17.534795 20.7331406,17.534795 L22.0314375,17.534795 C22.5998906,17.534795 23.0624063,18.0029988 23.0624063,18.5785488 C23.0624063,19.1540988 22.5998906,19.6223026 22.0313906,19.6223026 L12.2761406,19.6223026 C11.2301719,19.6223026 10.239375,19.2175478 9.48628125,18.4825447 L9.04415625,18.0510246 L9.04415625,9.40562605 C9.65203125,9.06275429 10.2293906,8.66730096 10.7635781,8.22728617 C12.2729531,6.98412099 13.4589844,5.3848912 14.2887188,3.47411082 C14.5247813,2.93054638 14.7111563,2.32438709 14.858625,1.62098984 C14.8921406,1.46115703 14.9631094,1.32296429 15.0695625,1.21039795 C15.3002813,0.966425121 15.6019219,0.949008659 15.6830625,0.949008659 C15.6913594,0.949008659 15.6967969,0.949198484 15.7028438,0.949198484 C16.2022031,0.949198484 16.6084688,1.36121406 16.6085156,1.86766768 C16.6085156,2.06926203 16.6099219,2.25581274 16.6112813,2.4322078 C16.61325,2.6959699 16.6151719,2.94511546 16.6114688,3.18045125 C16.5867656,4.75381735 16.0891406,6.2661072 15.1724063,7.55373893 C15.0695156,7.69829081 15.0552188,7.88892276 15.1354219,8.04747425 C15.2155781,8.2060732 15.3767344,8.30577888 15.5526563,8.30577888 L22.0314844,8.30577888 C22.5999375,8.30577888 23.0624531,8.77398272 23.0624531,9.3495327 L23.0624531,9.39869743 L23.0625,9.39869743 C23.0625,9.97424741 22.5999844,10.4424987 22.0314844,10.4424987 L20.7331875,10.4424987 C20.4742969,10.4424987 20.2644375,10.655008 20.2644375,10.9170617 C20.2644375,11.1791154 20.4742969,11.3916247 20.7331875,11.3916247 Z" id="Shape"></path>
            </g>
        </g>
    </g>
</svg>