<?xml version="1.0" encoding="UTF-8"?>
<svg width="24px" height="25px" viewBox="0 0 24 25" version="1.1" xmlns="http://www.w3.org/2000/svg" xmlns:xlink="http://www.w3.org/1999/xlink">
    <!-- Generator: Sketch 48.2 (47327) - http://www.bohemiancoding.com/sketch -->
    <title>diamond</title>
    <desc>Created with Sketch.</desc>
    <defs></defs>
    <g id="Sonder_landing" stroke="none" stroke-width="1" fill="none" fill-rule="evenodd" transform="translate(-1128.000000, -3083.000000)">
        <g id="Group-10" transform="translate(-1.000000, 2791.000000)" fill="#00E4FF" fill-rule="nonzero">
            <g id="diamond" transform="translate(1129.000000, 292.000000)">
                <path d="M23.8809411,10.9450243 L19.739248,6.16369535 C19.6490965,6.05960488 19.5194742,6 19.3833446,6 L4.61670292,6 C4.48057332,6 4.35095097,6.05960488 4.26079954,6.16369535 L0.11905886,10.9450243 C-0.00462623315,11.0878337 -0.0347875365,11.2913141 0.0419694182,11.4650889 C0.0708957706,11.5306058 0.113074097,11.5872062 0.164372062,11.6324187 C0.165369523,11.6335333 0.166129492,11.6347932 0.167126953,11.6359563 L11.6446666,24.8369831 C11.734818,24.9406859 11.8641554,25 12,25 C12.1358446,25 12.265182,24.9406374 12.3553334,24.8369831 L23.832873,11.6359563 C23.8338705,11.6348417 23.834678,11.6335818 23.8356279,11.6324187 C23.8868784,11.5872062 23.9290567,11.5305574 23.9580306,11.4650889 C24.0347875,11.2913141 24.0046262,11.0878337 23.8809411,10.9450243 Z M18.541108,6.96913656 L16.4302442,10.4409511 L13.0474284,6.96913656 L18.541108,6.96913656 Z M15.4224292,10.7813289 L8.57757078,10.7813289 L12,7.26885702 L15.4224292,10.7813289 Z M10.9525716,6.96918502 L7.56975576,10.4409996 L5.45889201,6.96918502 L10.9525716,6.96918502 Z M4.54298585,7.30142164 L6.65878941,10.7813289 L1.52861294,10.7813289 L4.54298585,7.30142164 Z M1.53659262,11.7505139 L7.14982492,11.7505139 L11.0273811,22.6664932 L1.53659262,11.7505139 Z M12.9902407,22.6462373 L15.6994382,15.1654858 C15.7903496,14.9144184 15.6645746,14.6357293 15.4185344,14.5429783 C15.1723516,14.4501303 14.8992375,14.5784989 14.8083736,14.8295663 L12.0043223,22.57224 L8.16025234,11.7505139 L22.4634074,11.7505139 L12.9902407,22.6462373 Z M17.3412106,10.7813289 L19.4570142,7.30142164 L22.4713871,10.7813289 L17.3412106,10.7813289 Z" id="Shape"></path>
                <path d="M12.5,0 C12.2239,0 12,0.187812006 12,0.419504146 L12,2.58049585 C12,2.81218799 12.2239,3 12.5,3 C12.7761,3 13,2.81218799 13,2.58049585 L13,0.419504146 C13,0.187812006 12.7761,0 12.5,0 Z" id="Shape"></path>
                <path d="M16.8442886,2.15571624 C16.6366734,1.94809459 16.3001294,1.94809459 16.0923547,2.15571624 L14.1557114,4.09236638 C13.9480962,4.29998804 13.9480962,4.63664881 14.1557114,4.84427047 C14.2595988,4.94810788 14.3956519,5 14.531705,5 C14.6677581,5 14.8038112,4.94805471 14.9076453,4.84427047 L16.8442886,2.90762033 C17.0519038,2.69999867 17.0519038,2.3633379 16.8442886,2.15571624 Z" id="Shape"></path>
                <path d="M9.84428583,4.09236638 L7.90766143,2.15571624 C7.7000957,1.94809459 7.36354574,1.94809459 7.15571417,2.15571624 C6.94809528,2.3633379 6.94809528,2.69999867 7.15571417,2.90762033 L9.09239174,4.84427047 C9.19622777,4.94810788 9.33228328,5 9.46833878,5 C9.60439429,5 9.7404498,4.94805471 9.84428583,4.84427047 C10.0519047,4.63664881 10.0519047,4.29998804 9.84428583,4.09236638 Z" id="Shape"></path>
                <circle id="Oval" cx="15.5" cy="13.5" r="1"></circle>
            </g>
        </g>
    </g>
</svg>